<svg id="Layer_44" data-name="Layer 44" xmlns="http://www.w3.org/2000/svg" viewBox="0 0 411.75 411.75"><defs><style>.cls-1{fill:#3f4d50;}.cls-2{fill:#f6ba2e;}.cls-2,.cls-3{fill-rule:evenodd;}.cls-3{fill:#ffd15f;}</style></defs><title>icon_star</title><circle class="cls-1" cx="205.87" cy="205.87" r="205.87"/><path class="cls-2" d="M4693.87,1728.36l71.37-53-53,71.37A51.74,51.74,0,0,0,4693.87,1728.36Z" transform="translate(-4461.59 -1568.35)"/><path class="cls-2" d="M4654.8,1722.93l13-87.92,13,87.92A51.75,51.75,0,0,0,4654.8,1722.93Z" transform="translate(-4461.59 -1568.35)"/><path class="cls-2" d="M4623.34,1746.75l-53-71.37,71.37,53A51.77,51.77,0,0,0,4623.34,1746.75Z" transform="translate(-4461.59 -1568.35)"/><path class="cls-2" d="M4616.26,1772.81a51.79,51.79,0,0,0,1.65,13l-87.92-13,87.92-13A51.64,51.64,0,0,0,4616.26,1772.81Z" transform="translate(-4461.59 -1568.35)"/><path class="cls-2" d="M4641.73,1817.26l-71.37,53,53-71.37A51.72,51.72,0,0,0,4641.73,1817.26Z" transform="translate(-4461.59 -1568.35)"/><path class="cls-2" d="M4680.79,1822.69l-13,87.93-13-87.93A51.62,51.62,0,0,0,4680.79,1822.69Z" transform="translate(-4461.59 -1568.35)"/><path class="cls-3" d="M4667.79,1815.22a42.4,42.4,0,1,1,42.4-42.4A42.4,42.4,0,0,1,4667.79,1815.22Z" transform="translate(-4461.59 -1568.35)"/><path class="cls-2" d="M4712.25,1798.88l53,71.37-71.37-53A51.72,51.72,0,0,0,4712.25,1798.88Z" transform="translate(-4461.59 -1568.35)"/><path class="cls-2" d="M4805.59,1772.81l-87.92,13a51.89,51.89,0,0,0,0-26Z" transform="translate(-4461.59 -1568.35)"/></svg>