<svg id="Layer_97" data-name="Layer 97" xmlns="http://www.w3.org/2000/svg" viewBox="0 0 411.75 411.75"><defs><style>.cls-1{fill:#24a9e0;}.cls-2{fill:#b9d034;}.cls-3{fill:#ffd161;}.cls-4{fill:#c78e3a;}</style></defs><title>icon_pineapple</title><circle class="cls-1" cx="205.87" cy="205.87" r="205.87"/><path class="cls-2" d="M1252.54,4650.14s-45.25-5.26-52.57-4.31c0,0,18.08-22.68,24.31-20.54,0,0-39.8-33-46-35.15,0,0,19.67-13.22,32.38-5,0,0-23.26-43.52-20.92-60,0,0,23.67,1.15,34.43,16.63,0,0-6-31.33.43-39.51,0,0,24.53,17.76,32.66,40.07a209,209,0,0,1,14.34-22.42s30,40.66,27.74,77.11c0,0,3.22-4.66,7.92-11.93,0,0,10.82,16.72-1.7,39.89l-13.14,41.46Z" transform="translate(-1087.59 -4457.2)"/><path class="cls-3" d="M1391,4745.77l-0.07,2.59a64.45,64.45,0,0,1-3.12,17.72l-0.75,2.11a51.05,51.05,0,0,1-8.3,14.37l-1.42,1.67a60.15,60.15,0,0,1-14,11.41l-2.19,1.27a90.33,90.33,0,0,1-14.51,6.42c-1,.35-2,0.68-3.06,1s-1.89.53-2.84,0.76c-0.52.13-1,.25-1.56,0.37-1.23.27-2.47,0.51-3.7,0.71a61.35,61.35,0,0,1-15,.59l-2.28-.23a64.57,64.57,0,0,1-16.86-4.41l-2-.86a75.33,75.33,0,0,1-14.87-8.85l-1.81-1.42q-2.84-2.27-5.53-4.85-1.5-1.43-3-3c-1.63-1.7-3.21-3.48-4.73-5.34-0.54-.65-1.06-1.31-1.58-2a106.74,106.74,0,0,1-10-15.31c-0.43-.81-0.86-1.62-1.27-2.45,0-.08-0.09-0.17-0.13-0.25-0.44-.87-0.87-1.75-1.29-2.65a122.35,122.35,0,0,1-4.7-11.46c-0.71-2-1.36-4-2-6-0.23-.77-0.45-1.53-0.66-2.3q-0.62-2.24-1.15-4.47-0.42-1.77-.78-3.51a113,113,0,0,1-1.78-11.48c0-.09,0-0.18,0-0.28,0-.26-0.05-0.52-0.08-0.78s0-.23,0-0.34,0-.24,0-0.39l0-.42a97,97,0,0,1,.26-18.79c0.08-.72.17-1.44,0.27-2.15,0-.31.09-0.63,0.13-0.94s0.1-.63.15-0.94c0.36-2.25.82-4.46,1.36-6.62a73.61,73.61,0,0,1,3.1-9.64l0.86-2.06a64.12,64.12,0,0,1,10.9-17.11l1.75-1.89a61.57,61.57,0,0,1,10.28-8.51h0q2.5-1.65,5.21-3.1a67.83,67.83,0,0,1,6.33-3c1.19-.49,2.41-0.95,3.66-1.38h0a62.49,62.49,0,0,1,21.38-3.6q1.43,0,2.85.1a59.45,59.45,0,0,1,20.85,5.21l2.07,1a72.71,72.71,0,0,1,15.77,10.65l1.62,1.45a91.58,91.58,0,0,1,9.93,10.8q1.26,1.59,2.47,3.26l0.38,0.53c0.3,0.41.6,0.84,0.89,1.26a118.11,118.11,0,0,1,9.7,16.85c0.33,0.7.66,1.4,1,2.11q1.58,3.49,3,7.14,0.61,1.58,1.18,3.2c0.08,0.21.16,0.43,0.23,0.64q1.53,4.35,2.86,8.65c0.25,0.82.49,1.62,0.73,2.43,1.22,4.15,2.27,8.25,3.13,12.29,0.22,1,.42,2,0.61,3q0.72,3.74,1.2,7.4c0.13,1,.25,2,0.35,2.95A92.48,92.48,0,0,1,1391,4745.77Z" transform="translate(-1087.59 -4457.2)"/><path class="cls-4" d="M1288.24,4637.63c4.77,1.12,9.74,2.36,14.84,3.75l2.33,0.64c6.39,1.78,13,3.78,19.69,6l2.25,0.76c6.25,2.15,12.59,4.51,19,7.12l2.15,0.89q7.13,3,14.28,6.37,1.26,1.59,2.47,3.26l0.38,0.53-0.62-.3c-6-3-12.09-5.68-18.12-8.17l-2.16-.88c-6.38-2.59-12.72-4.94-19-7.07l-2.24-.76c-6.72-2.25-13.3-4.23-19.68-6l-2.31-.64c-5.85-1.58-11.52-3-16.92-4.18Z" transform="translate(-1087.59 -4457.2)"/><path class="cls-4" d="M1381.34,4697.56q-4.5-2.67-9.07-5.12l-2-1.06c-5.8-3.07-11.65-5.9-17.49-8.53l-2.08-.92c-6.13-2.7-12.26-5.17-18.32-7.42l-2.17-.8c-6.44-2.35-12.8-4.46-19-6.35l-2.25-.68c-6.74-2-13.29-3.76-19.57-5.3l-2.31-.56c-7.09-1.69-13.8-3.1-20-4.26l-2.37-.44-3.72-.66c0.57-.64,1.16-1.27,1.75-1.89l3.38,0.62,2.37,0.44c6.23,1.19,13,2.61,20,4.31l2.31,0.57c6.29,1.55,12.85,3.33,19.59,5.36l2.25,0.68c6.22,1.91,12.59,4,19,6.4l2.17,0.8c6.07,2.27,12.2,4.75,18.33,7.48l2.09,0.92q8.78,4,17.49,8.57l2,1.06q3.19,1.74,6.37,3.56Q1380.77,4695.94,1381.34,4697.56Z" transform="translate(-1087.59 -4457.2)"/><path class="cls-4" d="M1388.9,4724.56q-5.51-3.6-11.13-6.88l-1.92-1.1q-8.38-4.8-16.89-8.93l-2-1c-5.9-2.82-11.82-5.42-17.7-7.8l-2.1-.85c-6.19-2.47-12.34-4.7-18.38-6.73l-2.18-.72c-6.45-2.13-12.79-4-18.92-5.7l-2.24-.6c-6.73-1.81-13.21-3.36-19.33-4.69l-2.29-.49c-7.1-1.5-13.69-2.7-19.61-3.67l-2.34-.37-2.6-.4c0.27-.7.56-1.38,0.86-2.06l3,0.47,2.34,0.38c6,1,12.57,2.21,19.66,3.72l2.31,0.5c6.14,1.35,12.63,2.92,19.37,4.73L1299,4683c6.15,1.7,12.48,3.6,19,5.74l2.18,0.74c6.05,2,12.2,4.29,18.4,6.77l2.1,0.85q8.84,3.61,17.71,7.85l2,1q8.51,4.16,16.89,9l1.91,1.1q4.57,2.69,9.09,5.58C1388.51,4722.57,1388.71,4723.57,1388.9,4724.56Z" transform="translate(-1087.59 -4457.2)"/><path class="cls-4" d="M1391,4745.77l-0.07,2.59q-3.69-2.54-7.46-4.93l-1.84-1.16c-5.36-3.34-10.81-6.47-16.3-9.38l-2-1q-8.52-4.44-17.1-8.23l-2-.9c-6-2.59-11.89-5-17.76-7.15l-2.12-.77c-6.19-2.25-12.31-4.28-18.29-6.11l-2.18-.66c-6.43-1.92-12.68-3.61-18.69-5.1l-2.23-.55c-6.67-1.61-13-3-19-4.13-0.77-.15-1.68-0.29-2.43-0.43-5.94-1.12-11.65-2-16.48-2.74h0a5.32,5.32,0,0,0-1-.17c0.08-.72,0-1.44.12-2.15a5.18,5.18,0,0,1,.9.15h0c6.44,0.76,11.25,1.72,17.6,2.93,0.75,0.15,1.62.29,2.39,0.44,6,1.16,12.37,2.54,19.06,4.17l2.26,0.55c6,1.5,12.31,3.21,18.74,5.15l2.18,0.66c6,1.84,12.13,3.89,18.33,6.15l2.12,0.78c5.88,2.19,11.83,4.57,17.78,7.18l2,0.9q8.58,3.82,17.11,8.27l2,1c5.49,2.92,10.94,6.05,16.3,9.41l1.85,1.16Q1387.92,4743.69,1391,4745.77Z" transform="translate(-1087.59 -4457.2)"/><path class="cls-4" d="M1387.79,4766.08l-0.75,2.11c-5-3.38-10.05-6.55-15.18-9.53-0.63-.37-1.26-0.74-1.89-1.09-5.45-3.12-11-6-16.5-8.7l-2-1q-8.58-4.1-17.15-7.58l-2.06-.83c-5.94-2.39-11.86-4.55-17.67-6.53l-2.13-.72c-6.15-2.05-12.19-3.89-18.06-5.53l-2.17-.6c-6.34-1.74-12.48-3.25-18.32-4.57l-2.21-.49c-6.57-1.44-12.75-2.63-18.42-3.62L1251,4717c-2.39-.41-4.68-0.77-6.86-1.1,0-.35-0.07-0.75-0.11-1.1a6.82,6.82,0,0,1-.1-1.19h0a1.57,1.57,0,0,1,.16.06l0.06,0c2.49,0.38,5.12.81,7.88,1.28l2.26,0.39c5.7,1,11.9,2.22,18.48,3.67l2.22,0.5c5.86,1.33,12,2.86,18.36,4.61l2.17,0.6c5.88,1.66,11.94,3.5,18.1,5.57l2.13,0.72c5.83,2,11.75,4.17,17.71,6.57l2.06,0.84q8.57,3.51,17.17,7.62c0.66,0.31,1.32.63,2,1q8.32,4.05,16.52,8.73l1.89,1.09C1378.09,4759.77,1383,4762.82,1387.79,4766.08Z" transform="translate(-1087.59 -4457.2)"/><path class="cls-4" d="M1378.74,4782.55l-1.42,1.67q-8.11-5.13-16.46-9.58l-1.92-1q-8.24-4.33-16.55-8.07l-2-.9c-5.71-2.52-11.42-4.85-17.08-7l-2.07-.78c-5.9-2.19-11.73-4.17-17.45-6l-2.13-.66c-6.05-1.87-12-3.54-17.69-5l-2.16-.56c-6.21-1.56-12.16-2.92-17.79-4.09l-2.2-.45c-4.69-.95-9.13-1.76-13.27-2.46-0.23-.77-0.45-1.53-0.66-2.3,4.61,0.76,9.6,1.67,14.9,2.75l2.2,0.46c5.65,1.18,11.63,2.54,17.85,4.13l2.16,0.55c5.74,1.49,11.68,3.17,17.75,5l2.12,0.66c5.74,1.82,11.59,3.82,17.5,6l2.07,0.78c5.67,2.15,11.39,4.48,17.11,7l2,0.9c5.54,2.5,11.08,5.2,16.58,8.09l1.93,1C1367.68,4775.85,1373.26,4779.08,1378.74,4782.55Z" transform="translate(-1087.59 -4457.2)"/><path class="cls-4" d="M1363.34,4795.64l-2.19,1.27q-5.24-2.9-10.53-5.54l-1.95-1q-8.23-4-16.47-7.48l-2-.84c-5.66-2.33-11.29-4.48-16.85-6.45l-2.07-.72c-5.79-2-11.5-3.83-17.08-5.47l-2.11-.62c-5.9-1.71-11.65-3.22-17.17-4.55l-2.15-.52c-5.17-1.22-10.13-2.29-14.84-3.22-0.43-.81-0.86-1.62-1.27-2.45,5.34,1,11,2.25,17,3.67l2.15,0.51c5.54,1.35,11.31,2.87,17.23,4.59l2.12,0.62c5.6,1.65,11.32,3.48,17.13,5.5l2.08,0.73c5.58,2,11.22,4.13,16.89,6.47l2,0.84q8.25,3.48,16.5,7.52l2,1Q1357.55,4792.42,1363.34,4795.64Z" transform="translate(-1087.59 -4457.2)"/><path class="cls-4" d="M1339.19,4805.44c-1.23.27-2.47,0.51-3.7,0.71q-6.21-2.77-12.39-5.22l-2-.8c-5.54-2.16-11-4.14-16.47-6l-2.07-.69c-5.64-1.85-11.18-3.51-16.57-5l-2.12-.58q-3.39-.92-6.69-1.77-1.5-1.43-3-3,5.12,1.25,10.45,2.71l2.12,0.59c5.42,1.51,11,3.19,16.63,5l2.07,0.69q8.16,2.74,16.54,6l2,0.8Q1331.58,4802,1339.19,4805.44Z" transform="translate(-1087.59 -4457.2)"/><path class="cls-4" d="M1246.15,4684.28l-0.55,4.83-0.49,3.81h0v2.16h0l-1.11,18.64v1.13c0-.39,0-0.77-0.06-1.16a97,97,0,0,1,.28-18.79c0.08-.72.18-1.44,0.28-2.15s0.19-1.26.29-1.88C1245.15,4688.66,1245.61,4686.44,1246.15,4684.28Z" transform="translate(-1087.59 -4457.2)"/><path class="cls-4" d="M1278.26,4642c-3.2,4-6.46,8.22-9.75,12.67-0.47.64-.95,1.28-1.42,1.93-3.89,5.32-7.78,10.95-11.63,16.85l-1.28,2c-3.2,5-6.35,10.14-9.4,15.49,0.36-2.25.82-4.46,1.36-6.62q2.81-4.72,5.7-9.23c0.42-.67.85-1.33,1.28-2,3.83-5.92,7.73-11.57,11.6-16.91l1.42-1.93q3.47-4.73,6.9-9.13h0Z" transform="translate(-1087.59 -4457.2)"/><path class="cls-4" d="M1312.51,4634.12c-2.25,2.43-4.63,5.07-7.1,7.9l-1.58,1.81c-4.12,4.75-8.49,10-13,15.71-0.49.62-1,1.24-1.46,1.87-4,5.08-8,10.51-12,16.26l-1.34,1.92c-3.67,5.33-7.32,10.91-10.89,16.73l-1.2,2c-3.32,5.51-6.56,11.23-9.66,17.14-0.35.67-.7,1.34-1,2q-3.41,6.6-6.55,13.51-0.42-1.77-.78-3.51,2.46-5.28,5.08-10.38l1-2q4.64-8.88,9.65-17.18h0c0.39-.66.79-1.32,1.19-2,3.55-5.84,7.2-11.43,10.87-16.78l1.32-1.93c4-5.76,8-11.21,12-16.31l1.46-1.88c4.47-5.72,8.83-11,13-15.77l1.57-1.81q3.42-3.92,6.58-7.36Q1311.1,4634,1312.51,4634.12Z" transform="translate(-1087.59 -4457.2)"/><path class="cls-4" d="M1335.43,4640.3c-2.43,2.49-5.15,5.34-8.08,8.52-0.53.57-1.06,1.15-1.6,1.75-4,4.43-8.43,9.44-13,15l-1.48,1.81c-4,4.83-8.05,10.05-12.18,15.62l-1.38,1.87c-3.74,5.11-7.5,10.51-11.22,16.16l-1.25,1.92c-3.45,5.33-6.85,10.88-10.14,16.64-0.37.66-.75,1.3-1.12,2-3.1,5.51-6.1,11.21-8.94,17.07-0.33.66-.64,1.33-1,2q-4,8.4-7.52,17.23c-0.44-.87-0.87-1.75-1.29-2.65q3.12-7.67,6.61-15l1-2c2.84-5.87,5.92-11.58,9-17.1a11.7,11.7,0,0,1,1.2-2V4719h-0.17c3.28-5.36,6.68-11.3,10.12-16.65,0.41-.64.83-1.27,1.25-1.9,3.7-5.67,7.47-11.08,11.21-16.21l1.37-1.87c4.13-5.59,8.22-10.83,12.18-15.69l1.48-1.8c4.59-5.58,9-10.62,13-15.08l1.59-1.75c3-3.26,5.76-6.17,8.27-8.73Z" transform="translate(-1087.59 -4457.2)"/><path class="cls-4" d="M1352.82,4652.4c-1.34,1.34-2.8,2.83-4.35,4.43l-1.6,1.69c-3.87,4.05-8.25,8.83-13,14.26l-1.5,1.75c-3.92,4.56-8,9.56-12.23,15l-1.41,1.81c-3.76,4.88-7.59,10.08-11.41,15.55l-1.28,1.87c-3.53,5.13-7,10.5-10.48,16.09l-1.17,1.92c-3.22,5.34-6.38,10.87-9.41,16.58l-1,2c-2.87,5.52-5.62,11.19-8.2,17q-0.45,1-.88,2-2.89,6.66-5.46,13.55c-0.54-.65-1.06-1.31-1.58-2q2.31-6.14,4.89-12.08c0.29-.68.58-1.34,0.88-2,2.57-5.84,5.32-11.53,8.19-17.06,0.34-.66.69-1.32,1-2,3-5.72,6.17-11.27,9.4-16.62l1.16-1.92c3.43-5.61,6.94-11,10.47-16.15,0.43-.63.86-1.25,1.29-1.87,3.81-5.5,7.64-10.71,11.41-15.61l1.41-1.82c4.2-5.41,8.32-10.43,12.24-15,0.5-.6,1-1.18,1.5-1.75,4.69-5.44,9.08-10.24,13-14.34l1.61-1.69c1.75-1.83,3.39-3.49,4.89-5Z" transform="translate(-1087.59 -4457.2)"/><path class="cls-4" d="M1366.49,4668.25c-3.5,3.54-7.62,7.87-12.17,12.92l-1.52,1.69c-3.82,4.28-7.9,9-12.13,14.24l-1.42,1.77c-3.74,4.64-7.59,9.62-11.45,14.9l-1.32,1.81c-3.56,4.92-7.13,10.1-10.66,15.51l-1.21,1.87c-3.31,5.15-6.57,10.5-9.73,16-0.36.64-.73,1.28-1.08,1.93q-4.51,8-8.66,16.55c-0.32.65-.64,1.3-0.95,2-2.63,5.53-5.13,11.21-7.44,17-0.27.67-.53,1.34-0.8,2-0.5,1.3-1,2.6-1.48,3.91-0.6-.46-1.2-0.93-1.81-1.42q0.57-1.54,1.16-3.08l0.8-2q3.47-8.73,7.44-17c0.31-.66.62-1.32,0.94-2q4.13-8.54,8.65-16.59c0.36-.65.72-1.29,1.09-1.93,3.16-5.56,6.41-10.93,9.72-16.1l1.21-1.88c3.52-5.42,7.1-10.62,10.67-15.55l1.32-1.83c3.88-5.3,7.72-10.3,11.47-15l1.42-1.77c4.23-5.22,8.32-10,12.15-14.31l1.51-1.69c4.77-5.32,9.11-9.87,12.75-13.56l0.23-.23,0.38,0.53C1365.9,4667.4,1366.2,4667.83,1366.49,4668.25Z" transform="translate(-1087.59 -4457.2)"/><path class="cls-4" d="M1377.17,4687.22c-1.08,1.14-2.21,2.33-3.38,3.58l-1.52,1.64c-3.66,4-7.67,8.49-11.87,13.48l-1.44,1.71c-3.67,4.4-7.48,9.14-11.34,14.21l-1.34,1.77c-3.54,4.69-7.13,9.66-10.69,14.87l-1.24,1.83c-3.34,4.95-6.66,10.12-9.9,15.47l-1.14,1.89c-3.08,5.17-6.09,10.52-9,16-0.34.64-.68,1.28-1,1.93q-4.13,8.06-7.88,16.56c-0.29.66-.58,1.32-0.86,2q-1.69,3.91-3.26,7.91c-0.67-.27-1.34-0.55-2-0.86q1.53-3.91,3.18-7.74c0.28-.67.57-1.33,0.86-2q3.73-8.51,7.88-16.59l1-1.94q4.33-8.29,9-16.08c0.38-.64.76-1.26,1.14-1.89,3.24-5.38,6.55-10.56,9.9-15.53l1.24-1.84c3.56-5.22,7.16-10.21,10.71-14.93l1.34-1.78c3.87-5.08,7.69-9.86,11.37-14.28l1.44-1.72c4.21-5,8.23-9.54,11.91-13.56l1.52-1.65q2.29-2.47,4.38-4.64C1376.52,4685.8,1376.85,4686.5,1377.17,4687.22Z" transform="translate(-1087.59 -4457.2)"/><path class="cls-4" d="M1385.16,4709.29q-2.87,3.17-6,6.71l-1.44,1.68c-3.56,4.14-7.28,8.64-11.09,13.47-0.45.57-.91,1.15-1.36,1.73-3.49,4.47-7,9.2-10.58,14.18l-1.26,1.8c-3.34,4.73-6.66,9.69-9.92,14.85-0.39.62-.78,1.22-1.16,1.85-3.12,5-6.18,10.14-9.13,15.47-0.35.63-.7,1.26-1,1.91q-4.26,7.79-8.18,16c-0.31.65-.62,1.3-0.92,2q-1.34,2.88-2.62,5.8c-0.76-.06-1.52-0.13-2.28-0.23q1.39-3.22,2.86-6.37l0.92-2q3.91-8.27,8.2-16.09c0.35-.64.7-1.28,1-1.91q4.44-8,9.15-15.52l1.16-1.85c3.28-5.18,6.61-10.16,9.94-14.91l1.26-1.79c3.56-5,7.11-9.77,10.61-14.26l1.36-1.74c3.82-4.85,7.55-9.38,11.12-13.54l1.44-1.68c2.47-2.86,4.87-5.55,7.14-8C1384.68,4707.67,1384.92,4708.48,1385.16,4709.29Z" transform="translate(-1087.59 -4457.2)"/><path class="cls-4" d="M1390.45,4734.91q-2.76,3.27-5.62,6.81l-1.37,1.71c-3.38,4.23-6.83,8.71-10.3,13.45l-1.29,1.77c-3.28,4.51-6.56,9.24-9.8,14.17l-1.2,1.83c-3.1,4.77-6.17,9.73-9.15,14.85l-1.09,1.87c-2.41,4.21-4.77,8.52-7,12.94-0.95.28-1.89,0.53-2.84,0.76,2.54-5,5.2-9.91,7.92-14.66,0.35-.63.72-1.25,1.08-1.87,3-5.14,6.07-10.12,9.18-14.91,0.39-.62.8-1.22,1.19-1.83q4.89-7.42,9.84-14.24l1.28-1.77c3.49-4.76,7-9.28,10.36-13.53l1.36-1.71c2.43-3,4.81-5.88,7.12-8.6C1390.23,4733,1390.35,4733.93,1390.45,4734.91Z" transform="translate(-1087.59 -4457.2)"/></svg>