<svg id="Layer_36" data-name="Layer 36" xmlns="http://www.w3.org/2000/svg" viewBox="0 0 411.74 411.74"><defs><style>.cls-1{fill:#89dae8;}.cls-2{fill:#3d72f4;}.cls-3{fill:#1a364d;}.cls-4{fill:#a1af68;}</style></defs><title>icon_coffee_2</title><circle class="cls-1" cx="205.87" cy="205.87" r="205.87"/><path class="cls-2" d="M83.73,245.39a39,39,0,0,0,61.15,32.1v42.07H280.22V189.45H144.88v23.84a38.66,38.66,0,0,0-22.11-6.93A39.08,39.08,0,0,0,83.73,245.39Zm15.62,0A23.35,23.35,0,0,1,144.88,238v14.69A23.34,23.34,0,0,1,99.35,245.39Z"/><polygon class="cls-3" points="331.71 312.44 86.17 312.44 86.17 316.37 113.35 325.65 113.35 336.23 304.52 336.23 304.52 325.65 331.71 316.37 331.71 312.44"/><path class="cls-4" d="M194.7,31.83c13.34,56-28,32.59,4,116.09C185.41,94,230.73,87.84,194.7,31.83Z"/><path class="cls-4" d="M221,61.85c13.34,56-28,32.59,4,116.09C211.63,124,257,117.86,221,61.85Z"/></svg>