<svg id="Layer_49" data-name="Layer 49" xmlns="http://www.w3.org/2000/svg" viewBox="0 0 411.74 411.74"><defs><style>.cls-1{fill:#f44a66;}.cls-2{fill:#0bce9a;}.cls-3{fill:#a2ace0;}.cls-4{fill:#d9e880;}</style></defs><title>icon_coffeecup_2</title><circle class="cls-1" cx="205.87" cy="205.87" r="205.87"/><path class="cls-2" d="M289.41,144.88s37.18-23,55.85,9.87c15.17,26.67,0,51.42-21.06,65.47-19.3,12.85-44.41,37.41-50.81,50.4,0,0-2.75-38.45,6.41-42.61s43.84-23.59,50.68-36,4.67-32-12.27-35.67S284.38,176,283,201s-17.4-23.9-16-24.42S289.41,144.88,289.41,144.88Z"/><path class="cls-3" d="M203.12,104.34c11.31-.15,86.44-1.69,92.44,20.79,0,0-4.68,99.24-15.59,134-10.74,34.28-33.12,47.87-76,48.28h-1.78c-42.84-.41-65.22-14-76-48.28-10.91-34.81-15.59-134-15.59-134C116.68,102.66,191.82,104.18,203.12,104.34Z"/><ellipse class="cls-4" cx="203.27" cy="125.48" rx="91.82" ry="24.54"/></svg>