<svg id="Layer_54" data-name="Layer 54" xmlns="http://www.w3.org/2000/svg" viewBox="0 0 411.75 411.75"><defs><style>.cls-1{fill:#f57d1f;}.cls-2{fill:#42959b;}.cls-3{fill:#9adaf6;}.cls-4{fill:#edf8fe;}.cls-5{fill:#19334b;}</style></defs><title>icon_fish</title><circle class="cls-1" cx="205.87" cy="205.87" r="205.87"/><path class="cls-2" d="M4715,2366.28c-7.09,9.51-13.15,15.28-5.86,20.72s19.43,0.05,26.51-9.46,8.13-21.84,6.07-24.62C4736.3,2345.61,4722,2356.78,4715,2366.28Z" transform="translate(-4461.59 -2049.82)"/><path class="cls-2" d="M4573.19,2243.9c2.72-15-29.33-27.66-29.67-44.13-1-49.3,64.48-83.95,124.62-76.55,52.33,6.46,71.29,253.06,0,260.08-59.5,5.85-105.06-24.83-115.14-69.76-3.69-16.45,26.7-30.11,22.23-36.9C4567,2264.09,4571.5,2253.14,4573.19,2243.9Z" transform="translate(-4461.59 -2049.82)"/><path class="cls-3" d="M4569.09,2240.48c-16.37-47.05,38.91-124.66,99.06-117.26,52.33,6.46,103.61,42,141.79,102.11,4.54,7.34,11.36,14.38,20.74,13.71,8.48-.61,2,11.52,2,11.52l-19.65,19.55c-50.38,73.51-73.62,106.19-144.91,113.2-59.5,5.85-89.5-24.16-97.68-104-1.54-14.92-34.54,22.44-45.91,12.53-7.29-6.38-7.91-64-2.71-70.45C4529.54,2211.84,4572.16,2249.35,4569.09,2240.48Z" transform="translate(-4461.59 -2049.82)"/><path class="cls-4" d="M4762.33,2223.33a14.38,14.38,0,1,0,14.37-14.39A14.38,14.38,0,0,0,4762.33,2223.33Z" transform="translate(-4461.59 -2049.82)"/><path class="cls-5" d="M4771.33,2223.31a9.6,9.6,0,1,0,9.61-9.58A9.6,9.6,0,0,0,4771.33,2223.31Z" transform="translate(-4461.59 -2049.82)"/><path class="cls-2" d="M4651,2137.07c-21.93,23.25-36.7,66.79-36.7,116.7,0,48.63,14,91.23,35,114.88-29.71-15.37-51.26-61.21-51.26-115.38C4598,2198.06,4620.42,2151.55,4651,2137.07Z" transform="translate(-4461.59 -2049.82)"/><path class="cls-2" d="M4679.85,2148.65c-19.74,20.92-33,60.11-33,105,0,43.77,12.6,82.1,31.51,103.39-26.75-13.83-46.14-55.1-46.14-103.85C4632.18,2203.55,4652.33,2161.68,4679.85,2148.65Z" transform="translate(-4461.59 -2049.82)"/><path class="cls-2" d="M4711,2159.07c-17.76,18.83-29.74,54.09-29.74,94.53,0,39.38,11.35,73.89,28.36,93-24.07-12.45-41.53-49.59-41.53-93.46C4668.09,2208.48,4686.22,2170.8,4711,2159.07Z" transform="translate(-4461.59 -2049.82)"/></svg>