<svg id="Layer_82" data-name="Layer 82" xmlns="http://www.w3.org/2000/svg" viewBox="0 0 411.75 411.75"><defs><style>.cls-1{fill:#a2dcf1;}.cls-2{fill:#88ba41;fill-rule:evenodd;}</style></defs><title>icon_clover</title><circle class="cls-1" cx="205.87" cy="205.87" r="205.87"/><path class="cls-2" d="M3697.15,3812.92c-12.09-6-5.34-10.48-.61-20.23,11.74-24.15,3.85-50.66.39-59-3.57-8.57-2.52-4.06-4.95,1.83s-4.51,23.35-29.1,43.16c-27.39,22.06-51,6.46-58.71-4.41-9.75-13.71-15.71-41.78-8-65.48s43.82-17.32,48.48-16.17c5.34,1.3,10.4.26,2.05-2.66s-34.64-15.46-41.87-25.29-8.1-35.2,15.57-58.54,51.07-24.08,64-13.4c16.07,13.3,11.05,55.14,11.23,59.49s2.37,6.07,3,1.6,5.18-28.14,12.63-47.41c7.76-20.11,42.85-19.84,71.58,2.36s27.87,43.41,18,56.22-39.21,23.35-39.21,23.35c-5.61,2.3-3.64,3.84.69,2.3,9.56-3.41,26.18-6.82,44.51-6.91,12.3-.07,17.52,9.3,19.65,16.57,7,24-7.58,49.85-17.12,65.13-8.92,14.28-22.11,14.37-25.68,14-32.21-3-64.89-44.3-67.13-48.32-2.07-3.72-4.61-3.36-3,1.19,6.43,18.6,8.26,42.13-.1,70.5C3710.33,3813.22,3707.84,3818.26,3697.15,3812.92Z" transform="translate(-3497.59 -3494.25)"/></svg>