<svg id="Layer_81" data-name="Layer 81" xmlns="http://www.w3.org/2000/svg" viewBox="0 0 411.75 411.75"><defs><style>.cls-1{fill:#24a9e0;}.cls-2{fill:#fdba14;}</style></defs><title>icon_anchor</title><circle class="cls-1" cx="205.87" cy="205.87" r="205.87"/><rect class="cls-2" x="3214.59" y="3614.84" width="19.17" height="194.23" transform="translate(-4449.87 -1354.77) rotate(-30.37)"/><path class="cls-2" d="M3343.19,3684.75c-8,18.45-15.77,38.48-24.84,54-12.89,22.11-25.32,37.61-48.47,51.17s-42.78,16.85-68.36,17.29c-18,.31-39.27-2.72-59.29-4.73-1.16-.12-1.83,1.13-0.88,1.79a130.36,130.36,0,0,0,203.84-119.45C3345.09,3683.69,3343.66,3683.69,3343.19,3684.75Z" transform="translate(-3015.59 -3494.25)"/><rect class="cls-2" x="3252.51" y="3779.06" width="39.8" height="30.4" rx="7.47" ry="7.47" transform="translate(-4484.86 -1319.1) rotate(-30.37)"/><path class="cls-2" d="M3112.44,3787.74l35.32-1.54a3.27,3.27,0,0,1,3,4.77l-13.75,26.4a3.27,3.27,0,0,1-5.65.25l-19-29.82A0,0,0,0,1,3112.44,3787.74Z" transform="translate(-3015.59 -3494.25)"/><path class="cls-2" d="M3289.35,3822.43l-33.65-4c-2.39-.28-1.24-3.06,2.08-5l39.27-23c3.32-1.94,6.31-1.59,5.39.63l-13,31.29A0.11,0.11,0,0,1,3289.35,3822.43Z" transform="translate(-3015.59 -3494.25)"/><path class="cls-2" d="M3344.39,3652.75l-18.6,30.06a3.27,3.27,0,0,0,2.68,5l29.75,0.91a3.27,3.27,0,0,0,3-4.81l-16.73-31.14A0,0,0,0,0,3344.39,3652.75Z" transform="translate(-3015.59 -3494.25)"/><path class="cls-2" d="M3237,3626.61l-93.6,54.85a9.51,9.51,0,0,1-13-3.39h0a9.51,9.51,0,0,1,3.39-13l93.6-54.85a9.51,9.51,0,0,1,13,3.39h0A9.51,9.51,0,0,1,3237,3626.61Z" transform="translate(-3015.59 -3494.25)"/><circle class="cls-2" cx="3175.08" cy="3628.17" r="12.46" transform="translate(-4414.24 -1391.11) rotate(-30.37)"/><path class="cls-2" d="M3145.42,3577.56a34.29,34.29,0,1,0,46.92,12.25A34.29,34.29,0,0,0,3145.42,3577.56Zm28.47,48.58a22,22,0,1,1,7.86-30.12A22,22,0,0,1,3173.89,3626.13Z" transform="translate(-3015.59 -3494.25)"/></svg>