<svg id="Layer_15" data-name="Layer 15" xmlns="http://www.w3.org/2000/svg" viewBox="0 0 411.75 411.75"><defs><style>.cls-1{fill:#fdba14;}.cls-2{fill:#fff;}</style></defs><title>icon_sun</title><circle class="cls-1" cx="205.87" cy="205.87" r="205.87"/><circle class="cls-2" cx="205.87" cy="205.87" r="67.58"/><path class="cls-2" d="M892.56,811.88L941.07,770l-63.73-5.95,14.45-62.42-55,32.81-25.17-58.92-24.25,57.17-52.47-33.34,12.7,62.73-63.93,4.18L731,809.44l-49.14,41.11,63.63,6.92-15.4,62.19,55.45-32L809.8,947l25.89-58.54L890.28,922l-13.66-62.53,63.86-5.15ZM875.45,854q-2,3-4.35,5.85a76.86,76.86,0,0,1-33.18,23.51q-3.4,1.23-6.94,2.15a77.22,77.22,0,0,1-40.68-.62q-3.51-1-6.87-2.36A76.93,76.93,0,0,1,751,858.07q-2.22-2.88-4.17-6a76.31,76.31,0,0,1-11.73-38.92q0-.95,0-1.9,0-2.72.19-5.39a76.28,76.28,0,0,1,13.5-38.34q2.08-3,4.44-5.78a76.87,76.87,0,0,1,31.34-22.21,76.1,76.1,0,0,1,9.17-2.84,77.26,77.26,0,0,1,38.42.58q3.52,1,6.9,2.25a76.89,76.89,0,0,1,32.82,24q2.27,2.85,4.26,5.91a76.29,76.29,0,0,1,12.32,38.74q0.06,1.53.06,3.07,0,2.13-.12,4.23A76.28,76.28,0,0,1,875.45,854Z" transform="translate(-605.59 -605.4)"/></svg>