<svg id="Layer_74" data-name="Layer 74" xmlns="http://www.w3.org/2000/svg" viewBox="0 0 411.75 411.75"><defs><style>.cls-1{fill:#ae87be;}.cls-2{fill:#ffd164;}</style></defs><title>icon_flower</title><circle class="cls-1" cx="205.87" cy="205.87" r="205.87"/><path class="cls-2" d="M4660.91,3206.07a160.24,160.24,0,0,0-9.34-44.78q-11.33-32-11.32-44,0-16.88,8-25.66a25.56,25.56,0,0,1,19.69-8.77q10.09,0,17.58,8.83t7.49,25.17q0,14.72-9,41t-11,48.53a153.32,153.32,0,0,0,32.67-27.78q22.42-25.8,33.16-32a43.26,43.26,0,0,1,21.83-6.22,24.52,24.52,0,0,1,18.07,7.36,24,24,0,0,1,7.34,17.53q0,12.11-10.77,21.61t-54,19q-25.24,5.58-41.92,12.78,17,8.85,41.6,13.42,39.63,7.22,51.82,18t12.21,23.56a23.07,23.07,0,0,1-7.33,17,23.66,23.66,0,0,1-17.09,7.2q-9.77,0-21.65-6.87t-32.33-30.72a175.16,175.16,0,0,0-33.65-30.06q0.66,18.64,7.77,40.52,12.15,38.56,12.18,52.62,0,13.09-7.82,22.07c-5.21,6-10.76,9-16.6,9-8,0-15.31-3.16-21.82-9.48q-6.83-6.87-6.83-21.89,0-15.66,7.67-37.73t9.65-30.4a202.56,202.56,0,0,0,3.68-24.68,180.46,180.46,0,0,0-33.81,28.44q-24,26.8-36,34a33,33,0,0,1-17.57,5.22,26.12,26.12,0,0,1-18.87-7.54q-7.82-7.55-7.81-16.74,0-8.2,6.68-17.24t20-14.92q8.77-3.93,40.16-10.51a212,212,0,0,0,39.55-12.46q-17.65-8.85-42.15-13.78-40.16-8.51-49.59-15.43-14.69-10.81-14.66-26.24,0-8.85,7.32-16.25a23.29,23.29,0,0,1,17.09-7.38q10.74,0,22.77,6.86t30.11,27.62Q4642.16,3194.63,4660.91,3206.07Z" transform="translate(-4461.59 -3012.77)"/></svg>