<svg id="Layer_81" data-name="Layer 81" xmlns="http://www.w3.org/2000/svg" viewBox="0 0 411.74 411.74"><defs><style>.cls-1{fill:#f2bb0a;}.cls-2{fill:#4e07ea;}</style></defs><title>icon_anchor_2</title><circle class="cls-1" cx="205.87" cy="205.87" r="205.87"/><rect class="cls-2" x="198.99" y="120.62" width="19.17" height="194.23" transform="matrix(0.86, -0.51, 0.51, 0.86, -81.46, 135.33)"/><path class="cls-2" d="M327.6,190.5c-8,18.45-15.77,38.48-24.84,54-12.89,22.11-25.32,37.61-48.47,51.17S211.51,312.52,185.93,313c-18,.31-39.27-2.72-59.29-4.73-1.16-.12-1.83,1.13-0.88,1.79A130.36,130.36,0,0,0,329.6,190.57C329.5,189.44,328.07,189.44,327.6,190.5Z"/><rect class="cls-2" x="236.92" y="284.83" width="39.8" height="30.4" rx="7.47" ry="7.47" transform="matrix(0.86, -0.51, 0.51, 0.86, -116.45, 171.01)"/><path class="cls-2" d="M96.85,293.49l35.32-1.54a3.27,3.27,0,0,1,3,4.77l-13.75,26.4a3.27,3.27,0,0,1-5.65.25l-19-29.82Z"/><path class="cls-2" d="M273.76,328.18l-33.65-4c-2.39-.28-1.24-3.06,2.08-5l39.27-23c3.32-1.94,6.31-1.59,5.39.63l-13,31.29A0.11,0.11,0,0,1,273.76,328.18Z"/><path class="cls-2" d="M328.8,158.5l-18.6,30.06a3.27,3.27,0,0,0,2.68,5l29.75,0.91a3.27,3.27,0,0,0,3-4.81L328.9,158.52Z"/><path class="cls-2" d="M221.41,132.36l-93.6,54.85a9.51,9.51,0,0,1-13-3.39h0a9.51,9.51,0,0,1,3.39-13L211.8,116a9.51,9.51,0,0,1,13,3.39h0A9.51,9.51,0,0,1,221.41,132.36Z"/><circle class="cls-2" cx="159.49" cy="133.93" r="12.46" transform="matrix(0.86, -0.51, 0.51, 0.86, -45.83, 99.01)"/><path class="cls-2" d="M129.83,83.31a34.29,34.29,0,1,0,46.92,12.25h0A34.29,34.29,0,0,0,129.83,83.31Zm28.47,48.58a22,22,0,1,1,7.86-30.12,22,22,0,0,1-7.86,30.12h0Z"/></svg>