<svg id="Layer_90" data-name="Layer 90" xmlns="http://www.w3.org/2000/svg" viewBox="0 0 411.74 411.74"><defs><style>.cls-1{fill:#8709d1;}.cls-2{fill:#f2b319;}</style></defs><title>icon_crown_2</title><circle class="cls-1" cx="205.87" cy="205.87" r="205.87"/><path class="cls-2" d="M318,144.41c-11.37-2.2-22.61,6.34-25.07,19.06a24.29,24.29,0,0,0,5.38,20.84c-29.77,7.66-55.12,23.36-57.16,34-2,10.35-9.76-30.09-22.33-57.48a22.8,22.8,0,1,0-14.42-.3c-10.81,20.68-11,38-18.72,53.47-10.69-6.88-30.53-28.58-51.38-40.72a25.49,25.49,0,0,0,1.1-3.77c2.59-13.36-5.42-26.16-17.89-28.56s-24.65,6.48-27.23,19.85,5.43,26.16,17.88,28.56a21.63,21.63,0,0,0,9.37-.28c16.34,23.93,24.57,50.58,25.14,94.49,40.09-2.33,108.39-4.24,134.13,5.77,5.27-27.26-6.64-65.57,27.16-100.7a19.18,19.18,0,0,0,5.14,1.89c11.4,2.2,22.62-6.33,25.08-19.06S329.36,146.61,318,144.41Z"/></svg>