<svg id="Layer_15" data-name="Layer 15" xmlns="http://www.w3.org/2000/svg" viewBox="0 0 411.74 411.74"><defs><style>.cls-1{fill:#1679ef;}.cls-2{fill:#d9ed88;}</style></defs><title>icon_sun_2</title><circle class="cls-1" cx="205.87" cy="205.87" r="205.87"/><circle class="cls-2" cx="205.87" cy="205.87" r="67.58"/><path class="cls-2" d="M287,206.48l48.51-41.88-63.73-6L286.2,96.23,231.2,129,206,70.12l-24.25,57.17L129.31,93.95,142,156.68l-63.93,4.18L125.41,204,76.27,245.15l63.63,6.92-15.4,62.19,55.45-32,24.26,59.34,25.89-58.54,54.59,33.54L271,254.07l63.86-5.15ZM269.86,248.6a71.78,71.78,0,0,1-4.35,5.85A76.86,76.86,0,0,1,232.33,278q-3.4,1.23-6.94,2.15a77.22,77.22,0,0,1-40.68-.62,67.84,67.84,0,0,1-6.87-2.36,76.93,76.93,0,0,1-32.43-24.46q-2.22-2.88-4.17-6a76.31,76.31,0,0,1-11.73-38.92v-1.9q0-2.72.19-5.39a76.28,76.28,0,0,1,13.5-38.34q2.08-3,4.44-5.78A76.87,76.87,0,0,1,179,134.13a76.1,76.1,0,0,1,9.17-2.84,77.26,77.26,0,0,1,38.42.58q3.52,1,6.9,2.25a76.89,76.89,0,0,1,32.82,24q2.27,2.85,4.26,5.91a76.29,76.29,0,0,1,12.32,38.74q0.06,1.53.06,3.07,0,2.13-.12,4.23A76.28,76.28,0,0,1,269.86,248.6Z"/></svg>