<svg id="Layer_54" data-name="Layer 54" xmlns="http://www.w3.org/2000/svg" viewBox="0 0 411.74 411.74"><defs><style>.cls-1{fill:#2aafea;}.cls-2{fill:#0dd30d;}.cls-3{fill:#f9ec53;}.cls-4{fill:#edf8fe;}.cls-5{fill:#19334b;}</style></defs><title>icon_fish_2</title><circle class="cls-1" cx="205.87" cy="205.87" r="205.87"/><path class="cls-2" d="M253.41,316.46c-7.09,9.51-13.15,15.28-5.86,20.72s19.43,0.05,26.51-9.46,8.13-21.84,6.07-24.62C274.71,295.79,260.41,307,253.41,316.46Z"/><path class="cls-2" d="M111.6,194.08c2.72-15-29.33-27.66-29.67-44.13-1-49.3,64.48-83.95,124.62-76.55,52.33,6.46,71.29,253.06,0,260.08-59.5,5.85-105.06-24.83-115.14-69.76-3.69-16.45,26.7-30.11,22.23-36.9C105.41,214.27,109.91,203.32,111.6,194.08Z"/><path class="cls-3" d="M107.5,190.66C91.13,143.61,146.41,66,206.56,73.4c52.33,6.46,103.61,42,141.79,102.11,4.54,7.34,11.36,14.38,20.74,13.71,8.48-.61,2,11.52,2,11.52l-19.65,19.55c-50.38,73.51-73.62,106.19-144.91,113.2-59.5,5.85-89.5-24.16-97.68-104-1.54-14.92-34.54,22.44-45.91,12.53-7.29-6.38-7.91-64-2.71-70.45C68,162,110.57,199.53,107.5,190.66Z"/><path class="cls-4" d="M300.74,173.51a14.38,14.38,0,1,0,14.37-14.39,14.38,14.38,0,0,0-14.37,14.39h0Z"/><path class="cls-5" d="M309.74,173.49a9.6,9.6,0,1,0,9.62-9.58h0A9.6,9.6,0,0,0,309.74,173.49Z"/><path class="cls-2" d="M189.41,87.25c-21.93,23.25-36.7,66.79-36.7,116.7,0,48.63,14,91.23,35,114.88-29.71-15.37-51.26-61.21-51.26-115.38C136.41,148.24,158.83,101.73,189.41,87.25Z"/><path class="cls-2" d="M218.26,98.83c-19.74,20.92-33,60.11-33,105,0,43.77,12.6,82.1,31.51,103.39-26.75-13.83-46.14-55.1-46.14-103.85C170.59,153.73,190.74,111.86,218.26,98.83Z"/><path class="cls-2" d="M249.41,109.25c-17.76,18.83-29.74,54.09-29.74,94.53,0,39.38,11.35,73.89,28.36,93C224,284.33,206.5,247.19,206.5,203.32,206.5,158.66,224.63,121,249.41,109.25Z"/></svg>