<svg id="Layer_25" data-name="Layer 25" xmlns="http://www.w3.org/2000/svg" viewBox="0 0 411.74 411.74"><defs><style>.cls-1{fill:#417a87;}.cls-2{fill:#20bc0f;}.cls-3{fill:#ff641f;}.cls-4{fill:#f25f58;}.cls-5{fill:#ffd400;}.cls-6{fill:#ffe91f;}</style></defs><title>icon_rocket_2</title><circle class="cls-1" cx="205.87" cy="205.87" r="205.87"/><path class="cls-2" d="M238.86,84.64H176c-13.76,38.2-11.68,89-11.68,89,1.56,80.21,24.79,88.21,24.79,88.21h36.62s23.23-8,24.79-88.21C250.54,173.62,252.62,122.84,238.86,84.64Z"/><path class="cls-3" d="M164.53,180.6S122,211.85,153.69,282.52c0,0,8.83-24.89,33.23-22C186.93,260.51,166.94,247.86,164.53,180.6Z"/><path class="cls-3" d="M250.25,180.6s42.57,31.25,10.84,101.92c0,0-8.7-24.92-33.1-22C228,260.48,247.85,247.86,250.25,180.6Z"/><path class="cls-4" d="M205.89,349.94a8.84,8.84,0,0,0,2.44,1.77v-6.25A25.66,25.66,0,0,1,205.89,349.94Z"/><path class="cls-5" d="M238.58,296.6s-4.76-16.37-18-20.64H193.22s-19.47-1.17-16.94,26.87c0,0,4.64-10.51,8.36-7.79,0,0-1,42.64,10,36.8,0,0,1.4-8,7-9.15a16,16,0,0,1,6.78,4.52v0.2c3,3.42,4,9.06,0,18.06v6.25c4,2,12.39,1.36,14.55-33.12,0,0,5.47-6.81,8.2,2.14,0,0,1.57,5.06,0,7.59C231.17,328.33,244.23,327.94,238.58,296.6Z"/><path class="cls-3" d="M208.33,43.13c-0.49-.14-0.74-0.16-1-0.22a0.36,0.36,0,0,1-.14.07,0.25,0.25,0,0,1-.18-0.12c-2.81.57-19.81,5.23-28,35.23h56.47C228,51.13,212.77,44.56,208.33,43.13Z"/><path class="cls-3" d="M208.26,258.75H178s4,21.39,30.28,26.19c26.24-4.81,30-26.19,30-26.19h-30Z"/><path class="cls-6" d="M208.41,99.63a22.1,22.1,0,1,0,22.1,22.1h0A22.13,22.13,0,0,0,208.41,99.63Z"/><path class="cls-6" d="M208.5,153.61a11,11,0,1,0,11,11h0A11,11,0,0,0,208.5,153.61Zm7.33,14.94q-0.19.35-.42,0.69l-0.23.33q-0.24.32-.51,0.62a8.33,8.33,0,0,1-11.77.57h0a7.68,7.68,0,0,1-.57-0.57q-0.27-.3-0.51-0.62l-0.23-.33q-0.22-.33-0.42-0.69a8.34,8.34,0,0,1,.42-8.63l0.23-.33q0.24-.32.51-0.62a7.66,7.66,0,0,1,.57-0.57,8.35,8.35,0,0,1,2-1.34,6.84,6.84,0,0,1,.75-0.32q0.39-.14.78-0.24a8.4,8.4,0,0,1,4.16,0,7.54,7.54,0,0,1,.78.24q0.38,0.14.75,0.32a8.36,8.36,0,0,1,2.56,1.91q0.27,0.3.51,0.62l0.23,0.33a8.34,8.34,0,0,1,.41,8.62h0Z"/></svg>