<svg id="Layer_77" data-name="Layer 77" xmlns="http://www.w3.org/2000/svg" viewBox="0 0 411.74 411.74"><defs><style>.cls-1{fill:#56c11e;}.cls-2{fill:#0cbcf2;}.cls-3{fill:#f4279d;}</style></defs><title>icon_apple_2</title><circle class="cls-1" cx="205.87" cy="205.87" r="205.87"/><path class="cls-2" d="M208,133.75c16.61,1,22.39-7.63,41.3-6.41s51.08,8.48,53.16,75.95-40.38,105-58.47,104.14-26.23-6.89-37.34-7.6-28,7.67-41.7,5.21-50.55-36.68-52.44-94.49,30.64-85.11,54.33-85.11S191.41,132.75,208,133.75Z"/><path class="cls-3" d="M166.75,92a31.56,31.56,0,0,0-5.72-.55l2.07-9.35c31.09,1.72,43.53,28.61,48,52.3,0.57,7.31,2.79,18,1.36,22.47-0.72,2.24-5.55.85-5.55,0.85s0.6-8.35-2.91-22-6-22.93-13-31.33c-3-3.58-10.77-7.52-13.23-8.72A13.6,13.6,0,0,0,176.3,95l-7.07-2.48A14.6,14.6,0,0,0,166.75,92Z"/></svg>