<svg id="Layer_60" data-name="Layer 60" xmlns="http://www.w3.org/2000/svg" viewBox="0 0 411.75 411.75"><defs><style>.cls-1{fill:#a2dcf1;}.cls-2{fill:#f04f3d;}</style></defs><title>icon_feet</title><circle class="cls-1" cx="205.87" cy="205.87" r="205.87"/><path class="cls-2" d="M2669.14,2696.26s-21.25,6.57-36.37,19.48a36.39,36.39,0,0,0-12.69,29.9c0.4,6.47,1.24,12.87,6.81,23.49,0,0,7.71,14.31,16,53.3,0,0,14.54,60.39,38.31,61.86,0,0,30.13,3.07,30.13-35.89,0,0-.82-27.2-14.72-44.22a41.08,41.08,0,0,1-9.5-25q0-.2,0-0.4a18.61,18.61,0,0,1,6.15-14c7.23-6.55,20.56-19.36,27.81-30.81,0,0,8.93-14.88-12.45-32.74A44.17,44.17,0,0,0,2669.14,2696.26Z" transform="translate(-2533.59 -2531.3)"/><ellipse class="cls-2" cx="87.42" cy="178.81" rx="6.56" ry="8.42"/><ellipse class="cls-2" cx="103.6" cy="164" rx="7.56" ry="10.45"/><ellipse class="cls-2" cx="121.91" cy="151.51" rx="8.39" ry="10.27"/><ellipse class="cls-2" cx="146.16" cy="143.67" rx="9.37" ry="12.06"/><ellipse class="cls-2" cx="177.36" cy="142.6" rx="14.02" ry="21.04"/><path class="cls-2" d="M2795.28,2633.41s21.25,6.57,36.37,19.48a36.39,36.39,0,0,1,12.69,29.9c-0.4,6.47-1.24,12.87-6.81,23.49,0,0-7.71,14.31-16,53.3,0,0-14.54,60.39-38.31,61.86,0,0-30.13,3.07-30.13-35.89,0,0,.82-27.2,14.72-44.22a41.08,41.08,0,0,0,9.5-25q0-.2,0-0.4a18.61,18.61,0,0,0-6.15-14c-7.23-6.55-20.56-19.36-27.81-30.81,0,0-8.93-14.88,12.45-32.74A44.17,44.17,0,0,1,2795.28,2633.41Z" transform="translate(-2533.59 -2531.3)"/><ellipse class="cls-2" cx="309.83" cy="115.96" rx="6.56" ry="8.42"/><ellipse class="cls-2" cx="293.65" cy="101.15" rx="7.56" ry="10.45"/><ellipse class="cls-2" cx="275.34" cy="88.67" rx="8.39" ry="10.27"/><ellipse class="cls-2" cx="251.09" cy="80.83" rx="9.37" ry="12.06"/><ellipse class="cls-2" cx="219.89" cy="79.75" rx="14.02" ry="21.04"/></svg>