<svg id="Layer_14" data-name="Layer 14" xmlns="http://www.w3.org/2000/svg" viewBox="0 0 411.74 411.74"><defs><style>.cls-1{fill:#ff8;}.cls-2{fill:#272728;}.cls-3{fill:#c8f7fc;}</style></defs><title>icon_sunglasses_2</title><circle class="cls-1" cx="205.87" cy="205.87" r="205.87"/><path class="cls-2" d="M312.12,192.16c-5.06-1.06-9.78-2-14.45-3.11a5.65,5.65,0,0,1-2.6-2c-10.86-13-21.59-26.1-32.54-39a104.12,104.12,0,0,0-9.94-9.78,29.31,29.31,0,0,0-6.06-4.14c-3.68-1.92-7.38-2-10.89.68-4.07,3-8,6.34-12.34,9a65.57,65.57,0,0,1-12.72,6.06c-4.37,1.5-6.7-.78-6.34-5.41a11.54,11.54,0,0,1,4.59-8.31c9.2-7.19,19-13.24,30.84-15.12,7.66-1.23,15,.11,20.48,5.83,8.48,8.87,16.85,17.91,24.47,27.5,9,11.39,17.27,23.45,25.84,35.23C311,190.35,311.5,191.19,312.12,192.16Z"/><path class="cls-2" d="M76.08,194.37c0.79-1.23,1.36-2.19,2-3.11,13.12-19.12,26.72-37.89,42.51-54.92A62.07,62.07,0,0,1,132.41,126c7.1-4.51,15-3.66,22.64-1.21,8.71,2.78,16.44,7.46,23.63,13,3.06,2.36,5.2,5.48,5.22,9.61s-2,5.94-5.8,4.81a47.4,47.4,0,0,1-11-4.73c-4.42-2.66-8.42-6-12.6-9.06-6.18-4.52-10.5-4.94-16.35.18A203.32,203.32,0,0,0,118.86,158c-8.71,10-16.88,20.44-25.2,30.76a7,7,0,0,1-4.7,2.86C84.73,192.28,80.6,193.37,76.08,194.37Z"/><path class="cls-2" d="M312.69,192.14a43.57,43.57,0,0,0-4.46-1.59,165.46,165.46,0,0,0-47-6.49c-14.93.06-29.27,5.54-43.94,7.55-7,1-14.2.59-21.3,0.77-7.1-.18-14.39.18-21.34-0.77-14.67-2-29-7.49-44-7.55a165.53,165.53,0,0,0-47,6.49,43.65,43.65,0,0,0-4.46,1.59c-10.53,4.34-12.93,16.73-4.5,24.43a12.21,12.21,0,0,1,4,7.47A89.75,89.75,0,0,0,89.41,253.6c6.55,11.13,16,17.86,28.85,19.83A74.21,74.21,0,0,0,152.33,271c10.6-3.35,18-10.64,23.76-19.8a82,82,0,0,0,11.1-27.12,24.1,24.1,0,0,1,1-3.28c1.36-3.75,2.5-7.38,6.32-7.46h3c3.82,0.08,4.92,3.71,6.29,7.46a24.09,24.09,0,0,1,1,3.28,82,82,0,0,0,11.1,27.12c5.77,9.15,13.16,16.45,23.76,19.8a74.21,74.21,0,0,0,34.07,2.42c12.88-2,22.3-8.7,28.85-19.83a89.74,89.74,0,0,0,10.68-29.52,12.21,12.21,0,0,1,4-7.47C325.61,208.87,323.21,196.48,312.69,192.14Z"/><path class="cls-3" d="M116.61,199.16c-7.73,1.23-15.51,3.5-22.06,8.12-5.81,4.1-7.87,11.13-6.51,18.29,0.7,3.67,4.17,18.38,13.66,27.65,3.39,3.31,6.68,6.83,11.4,8.32-0.09-.37-14.28-17.79-16.81-30-1.78-8.62.17-16.06,8-20.82a51.39,51.39,0,0,1,13.12-5.78c16.48-4.43,33.26-4.58,50.83-2.44-3.8-3.22-8.85-4-13-4.54C141.83,196.09,129.94,197,116.61,199.16Z"/><path class="cls-3" d="M243.69,196.6c-7.73,1.23-15.51,3.5-22.06,8.12-5.81,4.1-7.87,11.13-6.51,18.29,0.7,3.67,4.17,18.38,13.66,27.65,3.39,3.31,6.68,6.83,11.4,8.32-0.09-.37-14.28-17.79-16.81-30-1.78-8.62.17-16.06,8-20.82a51.39,51.39,0,0,1,13.16-5.77c16.48-4.43,33.26-4.58,50.83-2.44-3.8-3.22-8.85-4-13-4.54C268.91,193.5,257,194.46,243.69,196.6Z"/><ellipse class="cls-3" cx="82.94" cy="203.78" rx="7.37" ry="2.07" transform="translate(-29.59 14.72) rotate(-8.62)"/><ellipse class="cls-3" cx="310.36" cy="202.21" rx="2.07" ry="7.36" transform="translate(63.97 478.81) rotate(-81.39)"/></svg>