<svg id="Layer_101" data-name="Layer 101" xmlns="http://www.w3.org/2000/svg" viewBox="0 0 411.74 411.74"><defs><style>.cls-1{fill:#eadd63;}.cls-2{fill:#a313d8;}.cls-3{fill:#c688d3;}.cls-4{fill:#4ece82;}.cls-5{fill:#88ed9d;}</style></defs><title>icon_flipflops_2</title><circle class="cls-1" cx="205.87" cy="205.87" r="205.87"/><path class="cls-2" d="M168.53,263.12s-5.11-42.32,11.65-75,7.71-80.33-.27-89.65c-5.92-6.81-8.07-8.07-27.52-8.61s-38.46,8.43-47.42,20.8-16.23,43.93-14.43,71.27,2.69,23.49,3.59,30.3a337.92,337.92,0,0,1,2.33,50.92c-0.63,25.55.18,48,.18,48s-0.54,24.12,37.29,23.22,34.78-21.43,34.78-21.43Z"/><path class="cls-3" d="M172.41,260.43s-5-42.32,11.65-75,7.71-80.42-.27-89.65c-5.83-6.81-8.07-8.16-27.52-8.61S117.9,95.51,108.94,108s-16.32,43.84-14.43,71.18,2.6,23.49,3.5,30.39a330.17,330.17,0,0,1,2.33,50.83c-0.67,25.55.27,48,.27,48s-0.63,24.12,37.2,23.31,34.78-21.43,34.78-21.43Z"/><path class="cls-4" d="M103.9,196.42s-0.27,26,5,33.08,9.14,18,9.41,20.8,0.54,8.43-4.57,8.16-8.52-11.83-9.5-15c0,0-4-18.47-3.41-21.61C99.59,216.68,103.9,196.42,103.9,196.42Z"/><path class="cls-5" d="M100.58,220.36S97,178.13,113.49,161.28c27.7-33.08,48.32-36.22,48.32-36.22l-2.42,17.66S100.67,174.64,100.58,220.36Z"/><path class="cls-4" d="M181.08,188.44c-0.54-5.74-2.33,25.82-5.11,33.8-1.61,4.84-7.71,12-7.71,12L157,247s-9,10-6,15.24c2.78,5.11,5.56,4.39,9.05,3,3-1.17,3.77-3,12.19-13.09,8.88-10.67,11.48-34.7,11.48-34.7Z"/><path class="cls-5" d="M182.61,225.74c22.77-85.53-21.07-100.59-21.07-100.59l-2.42,17.66S185.3,176.43,182.61,225.74Z"/><path class="cls-2" d="M243.21,261.8s5.11-42.32-11.65-75-7.71-80.33.27-89.65c5.92-6.81,8.07-8.07,27.52-8.61s38.46,8.43,47.42,20.8S323,153.27,321.2,180.61s-2.69,23.49-3.59,30.3a338,338,0,0,0-2.33,50.92c0.63,25.55-.18,48-0.18,48s0.54,24.12-37.29,23.22S243,311.62,243,311.62Z"/><path class="cls-3" d="M239.35,259.09s5-42.32-11.65-75S220,103.67,228,94.44c5.83-6.81,8.07-8.16,27.52-8.61s38.37,8.34,47.33,20.8,16.32,43.84,14.43,71.18-2.6,23.49-3.5,30.39A330.17,330.17,0,0,0,311.42,259c0.67,25.55-.27,48-0.27,48s0.63,24.12-37.2,23.31-34.78-21.43-34.78-21.43Z"/><path class="cls-4" d="M307.84,195.07s0.27,26-5,33.08-9.14,18-9.41,20.8-0.54,8.43,4.57,8.16,8.52-11.83,9.5-15c0,0,4-18.47,3.41-21.61C312.15,215.33,307.84,195.07,307.84,195.07Z"/><path class="cls-5" d="M311.16,219s3.59-42.23-12.91-59.08c-27.7-33.08-48.32-36.22-48.32-36.22l2.42,17.66S311.07,173.29,311.16,219Z"/><path class="cls-4" d="M230.66,187.1c0.54-5.74,2.33,25.82,5.11,33.8,1.61,4.84,7.71,12,7.71,12l11.21,12.73s9,10,6,15.24c-2.78,5.11-5.56,4.39-9.05,3-3-1.17-3.76-3-12.19-13.09-8.87-10.67-11.48-34.7-11.48-34.7Z"/><path class="cls-5" d="M229.13,224.39C206.41,138.86,250.2,123.8,250.2,123.8l2.42,17.66S226.41,175.08,229.13,224.39Z"/></svg>