<svg id="Layer_7" data-name="Layer 7" xmlns="http://www.w3.org/2000/svg" viewBox="0 0 411.74 411.74"><defs><style>.cls-1{fill:#17d1fc;}.cls-2{fill:#8a36cc;}.cls-3{fill:#f4d65b;}.cls-4{fill:#eef0ef;}</style></defs><title>icon_icecream_2</title><circle class="cls-1" cx="205.87" cy="205.87" r="205.87"/><ellipse class="cls-2" cx="210.7" cy="191.41" rx="67.61" ry="12.83"/><path class="cls-3" d="M278.28,191.2c0.9,6.36-44.27,11.54-67.45,11.54a323.73,323.73,0,0,1-47.8-4.16c-4.89-1.19-7.93-2-7.93-2a8,8,0,0,0-3.12-.29c-5.37-1.45-8.77-3.06-8.83-4.75a17.32,17.32,0,0,0,3.54,12.39l0.51,0.17a4.77,4.77,0,0,0,.12.82l8.07,42.43c1.07,5.83,5.87,12.2,10.89,14.65,4.7,29.36,8.86,59.48,12.69,90,9,7.42,20.29,10.45,31.84,10.44s22.81-3,31.84-10.44c3.82-30.37,8-60.39,12.64-89.66,5-2.47,9.71-8.72,10.82-14.46l8.44-42.36a12.57,12.57,0,0,0,.2-1.49C276.71,201.16,278.59,194.7,278.28,191.2Z"/><path class="cls-4" d="M267.81,175.52V175.3c2.12-9.78,3.08-24.66-7.76-34.65a27.61,27.61,0,0,0-3.68-2.8,19.15,19.15,0,0,0,0-4.34c0.05,0.25.11,0.51,0.16,0.76,2.34-17.22-.78-27-11.41-37.62A33,33,0,0,0,237.38,91c0.28,0.06.57,0.13,0.86,0.17,1.49-6.38,2.2-16-7.37-27.28-6.18-7.28-13.91-16.44-19.74-28.76L210.58,34,210,35.16c-5.83,12.32-13.56,21.47-19.74,28.76-9.56,11.27-8.86,20.9-7.37,27.28a3.54,3.54,0,0,0,.86-0.17A33,33,0,0,0,176,96.65c-10.52,10.63-13.63,20.43-11.3,37.63,0.05-.26.11-0.51,0.16-0.76a19.15,19.15,0,0,0,0,4.34,27.61,27.61,0,0,0-3.68,2.8c-10.84,10-9.88,24.87-7.76,34.65v0.22c-3.88,4.24-5.49,9.22-4.23,14.55-1.15,2.55,2.92,2.63,9.91,2.31l0.25-.12c1,1.46,6,2.21,13.59,2.39,1.24,1.51,7.08,2.67,12.51,1.11,4.88,2.2,14.43,1.21,21.39.8,0.2,0,1.59.07,1.79,0.06,2.32,0.11,2.35-.14,5-0.11h0.61c7,0.41,16.52,1.4,21.39-.8,5.43,1.56,11.27.4,12.51-1.11,7.55-.17,12.56-0.92,13.59-2.39l0.25,0.12c7,0.32,11.06.24,9.91-2.31C273.29,184.74,271.68,179.76,267.81,175.52Z"/></svg>