<svg id="Layer_36" data-name="Layer 36" xmlns="http://www.w3.org/2000/svg" viewBox="0 0 411.75 411.75"><defs><style>.cls-1{fill:#ae87be;}.cls-2{fill:#f6b73b;}.cls-3{fill:#1a364d;}.cls-4{fill:#cbe2a0;}</style></defs><title>icon_coffee</title><circle class="cls-1" cx="205.87" cy="205.87" r="205.87"/><path class="cls-2" d="M689.32,1813.74a39,39,0,0,0,61.15,32.1v42.07H885.81V1757.8H750.47v23.84a38.66,38.66,0,0,0-22.11-6.93A39.08,39.08,0,0,0,689.32,1813.74Zm15.62,0a23.35,23.35,0,0,1,45.53-7.35v14.69A23.34,23.34,0,0,1,704.94,1813.74Z" transform="translate(-605.59 -1568.35)"/><polygon class="cls-3" points="331.71 312.44 86.17 312.44 86.17 316.37 113.35 325.65 113.35 336.23 304.52 336.23 304.52 325.65 331.71 316.37 331.71 312.44"/><path class="cls-4" d="M800.29,1600.18c13.34,56-28,32.59,4,116.09C791,1662.3,836.32,1656.19,800.29,1600.18Z" transform="translate(-605.59 -1568.35)"/><path class="cls-4" d="M826.55,1630.2c13.34,56-28,32.59,4,116.09C817.22,1692.32,862.59,1686.21,826.55,1630.2Z" transform="translate(-605.59 -1568.35)"/></svg>