<svg id="Layer_12" data-name="Layer 12" xmlns="http://www.w3.org/2000/svg" viewBox="0 0 411.75 411.75"><defs><style>.cls-1{fill:#3f4d50;}.cls-2{fill:#55bec0;fill-rule:evenodd;}</style></defs><title>icon_chessking</title><circle class="cls-1" cx="205.87" cy="205.87" r="205.87"/><path class="cls-2" d="M4270.64,283.07a20.75,20.75,0,0,1-4.94-13.61,22.24,22.24,0,0,1,21.95-22c12.06,0,22.26,10.21,22.26,22a22.65,22.65,0,0,1-19.78,22.27l-33.39,90.58c-26.28-3.4-52.55-5.25-71.42-5.25-30,0-51.94,3.71-71.1,5.25l-32.77-90.9c-10.82,0-20.41-10.2-20.41-22a22.57,22.57,0,0,1,22.27-22.26c12.05,0,22,10.2,22,22.26,0,3.41-.93,6.5-5.26,13.3l31.85,36.17,13.3-64.31c-8.66-.3-17.32-9.88-17.32-21.63a23.5,23.5,0,1,1,47,0c0,7.11-3.72,15.45-10.83,18.86l22,63.67h0.62l21-63.67A23.89,23.89,0,0,1,4198.3,233a23.5,23.5,0,1,1,47,0c0,11.12-6.5,18.54-16.08,21.63L4240,318.93Z" transform="translate(-3979.59 -123.92)"/><path class="cls-2" d="M4095.65,442.91c0-13.91-.31-41.75,17.94-43.28,19.16-1.55,41.11-5.26,71.1-5.26,19.17,0,45.15,1.86,71.42,5.26,19.79,2.46,19.48,26,19.48,43.28H4095.65Z" transform="translate(-3979.59 -123.92)"/></svg>