<svg id="Layer_83" data-name="Layer 83" xmlns="http://www.w3.org/2000/svg" viewBox="0 0 411.75 411.75"><defs><style>.cls-1{fill:#f57d1f;}.cls-2{fill:#34495e;}</style></defs><title>icon_teapot</title><circle class="cls-1" cx="205.87" cy="205.87" r="205.87"/><path class="cls-2" d="M4038.19,3650.72c0.8,0.59,1.54,1.57,2.44,1.74,15.29,2.86,20.43,14.18,23.86,27.52,3.15,12.25,6.08,24.79,11.24,36.23,6.36,14.09,18.14,23.08,33.4,27.26,2.53,0.69,4.75,3.33,6.62,5.49,5.25,6.05,9.93,12.62,15.43,18.42,4.16,4.39,10.81,6.44,11.68,13.86,0.14,1.21,3,3.41,4.91,3.87,8.06,2,16.24,3.75,24.42,4.31,23.37,1.59,46.82,2.76,69.82-3.64,5-1.4,9.83-2.56,11.05-9,0.4-2.11,3.07-4.1,5.13-5.53,11.23-7.84,18.93-18.15,24.22-30.84,1.9-4.56,6.64-8.38,10.87-11.46,12.87-9.36,23.21-20.71,25.83-36.68,1.38-8.43,1.29-17.89-1.11-26-6.55-22.13-33.71-27.83-51.33-11.55-1.9,1.75-3.72,3.58-7.48,7.2-1.66-4.91-4.25-8.74-3.84-12.22,0.72-6.07-2-9.35-6.78-10.58-8.51-2.17-17.25-3.45-25.92-5-4.9-.88-9.84-1.58-14.47-2.32,0-2.12-.2-2.76,0-3.13,3.12-4.91,5.64-11,.55-14.79-4.27-3.14-11-4.52-16.41-4.18-8.1.5-12.06,8.43-8.11,15.6,3.8,6.9-.14,7.44-5.05,8.09-9,1.19-18.11,1.91-27,3.69-7.69,1.54-15.78,3.36-13.11,14.95,0.49,2.13-2,10.5-3.86,12.88-7.64,9.73-12.43,14.35-21,23.23-2.84,3-12.4,4.26-16.86,3.69-3.42-.44-7.57-4.14-9.24-7.47-3.58-7.13-4.94-15.41-8.75-22.38a67.38,67.38,0,0,0-13.91-17.57C4056.71,3636.48,4044.27,3639.76,4038.19,3650.72Zm245.3,6.86c11.56-4.12,22.5,1.41,26.48,13.39,5.53,16.63-6.28,41.85-23.41,49-1.8-27.22-3.2-33.43-9.68-43.28C4271.43,3668.35,4274,3661,4283.49,3657.58Z" transform="translate(-3979.59 -3494.25)"/><path class="cls-2" d="M4294.56,3784.77c0,3.25-2.09,5.9-4.67,5.9H4106.28c-2.58,0-4.68-2.65-4.68-5.9h0c0-3.26,2.1-5.91,4.68-5.91h183.61c2.58,0,4.67,2.65,4.67,5.91h0Z" transform="translate(-3979.59 -3494.25)"/></svg>