<svg id="Layer_97" data-name="Layer 97" xmlns="http://www.w3.org/2000/svg" viewBox="0 0 411.74 411.74"><defs><style>.cls-1{fill:#a4f25a;}.cls-2{fill:#29d3ef;}.cls-3{fill:#fc1f1f;}</style></defs><title>icon_bageutte_2</title><circle class="cls-1" cx="205.87" cy="205.87" r="205.87"/><path class="cls-2" d="M151,226.09c28.27,80.44,75.57,139.28,105.63,131.43s31.51-79.44,3.24-159.88S184.29,58.36,154.23,66.21,122.71,145.65,151,226.09Z"/><path class="cls-3" d="M145.54,134.44c1.74,5,16.51,3.11,33.92-1.44s30.82-10.25,29.14-15c-1.9-5.41-16.51-3.11-33.92,1.44S143.59,128.87,145.54,134.44Z"/><path class="cls-3" d="M161.2,179c1.74,5,16.51,3.11,33.92-1.44s30.82-10.25,29.14-15c-1.9-5.41-16.51-3.11-33.92,1.44S159.25,173.42,161.2,179Z"/><path class="cls-3" d="M176.86,223.54c1.74,5,16.51,3.11,33.92-1.44s30.82-10.25,29.14-15c-1.9-5.41-16.51-3.11-33.92,1.44S174.91,218,176.86,223.54Z"/><path class="cls-3" d="M192.52,268.1c1.74,5,16.51,3.11,33.92-1.44s30.82-10.25,29.14-15c-1.9-5.41-16.51-3.11-33.92,1.44S190.57,262.53,192.52,268.1Z"/><path class="cls-3" d="M208.18,312.65c1.74,5,16.51,3.11,33.92-1.44s30.82-10.25,29.14-15c-1.9-5.41-16.51-3.11-33.92,1.44S206.23,307.08,208.18,312.65Z"/></svg>