<svg id="Layer_49" data-name="Layer 49" xmlns="http://www.w3.org/2000/svg" viewBox="0 0 411.75 411.75"><defs><style>.cls-1{fill:#24a9e0;}.cls-2{fill:#f6ba2e;}.cls-3{fill:#cce2a1;}.cls-4{fill:#f06e59;}</style></defs><title>icon_coffeecup</title><circle class="cls-1" cx="205.87" cy="205.87" r="205.87"/><path class="cls-2" d="M2341,2194.7s37.18-23,55.85,9.87c15.17,26.67,0,51.42-21.06,65.47-19.3,12.85-44.41,37.41-50.81,50.4,0,0-2.75-38.45,6.41-42.61s43.84-23.59,50.68-36,4.67-32-12.27-35.67-33.83,19.71-35.2,44.65-17.4-23.9-16-24.42S2341,2194.7,2341,2194.7Z" transform="translate(-2051.59 -2049.82)"/><path class="cls-3" d="M2254.71,2154.16c11.31-.15,86.44-1.69,92.44,20.79,0,0-4.68,99.24-15.59,134-10.74,34.28-33.12,47.87-76,48.28v0l-0.89,0-0.89,0v0c-42.84-.41-65.22-14-76-48.28-10.91-34.81-15.59-134-15.59-134C2168.27,2152.48,2243.41,2154,2254.71,2154.16Z" transform="translate(-2051.59 -2049.82)"/><ellipse class="cls-4" cx="203.27" cy="125.48" rx="91.82" ry="24.54"/></svg>