<svg id="Layer_21" data-name="Layer 21" xmlns="http://www.w3.org/2000/svg" viewBox="0 0 411.75 411.75"><defs><style>.cls-1{fill:#efcc00;}.cls-2{fill:#c92d2d;fill-rule:evenodd;}</style></defs><title>icon_butterfly</title><circle class="cls-1" cx="205.87" cy="205.87" r="205.87"/><path class="cls-2" d="M3233.62,808c3.7-44.58,154.91-110.64,130.35-39.9-6.08,17.52-16.21,25.63-19.93,43.64-4.29,20.77-19.84,15.48-38.61,15.79l-24.91.42c-1.08,0,23.38,4.69,39.44,15,42.58,27.24-44.64,95.39-78.87,53.2-3-3.73-10.13-29.34-14.11-25.35l-0.38.36c-0.73,1.22-1.64,1.84-2.81,1.65-1.16.19-2.08-.43-2.81-1.65l-0.38-.36c-4-4-11.09,21.62-14.11,25.35-34.23,42.19-121.46-26-78.87-53.2,16.06-10.27,40.52-14.95,39.44-15l-24.91-.42c-18.77-.31-34.32,5-38.61-15.79-3.72-18-13.84-26.12-19.93-43.64-24.57-70.74,126.65-4.67,130.35,39.9a45.32,45.32,0,0,1,4.05-5.82c-8.24-35.61-23.58-57.53-38.51-79.8,15.44,21.65,31.41,43,41.77,76.88a4.16,4.16,0,0,1,1.45-.52c1-.43,2.25-0.21,3.76.84,10.35-34.05,26.37-55.49,41.86-77.2-15,22.36-30.39,44.36-38.61,80.22h-0.08a52.28,52.28,0,0,1,4,5.4h0Z" transform="translate(-3015.59 -605.4)"/></svg>