<svg id="Layer_77" data-name="Layer 77" xmlns="http://www.w3.org/2000/svg" viewBox="0 0 411.75 411.75"><defs><style>.cls-1{fill:#3b4be2;}.cls-2{fill:#88ba41;}.cls-3{fill:#f59326;}</style></defs><title>icon_apple</title><circle class="cls-1" cx="205.87" cy="205.87" r="205.87"/><path class="cls-2" d="M1295.56,3628c16.61,1,22.39-7.63,41.3-6.41s51.08,8.48,53.16,75.95-40.38,105-58.47,104.14-26.23-6.89-37.34-7.6-28,7.67-41.7,5.21-50.55-36.68-52.44-94.49,30.64-85.11,54.33-85.11S1279,3627,1295.56,3628Z" transform="translate(-1087.59 -3494.25)"/><path class="cls-3" d="M1254.34,3586.23a31.56,31.56,0,0,0-5.72-.55l2.07-9.35c31.09,1.72,43.53,28.61,48,52.3,0.57,7.31,2.79,18,1.36,22.47-0.72,2.24-5.55.85-5.55,0.85s0.6-8.35-2.91-22-6-22.93-13-31.33c-3-3.58-10.77-7.52-13.23-8.72a13.59,13.59,0,0,0-1.47-.61l-7.07-2.48A14.61,14.61,0,0,0,1254.34,3586.23Z" transform="translate(-1087.59 -3494.25)"/></svg>