<svg id="Layer_44" data-name="Layer 44" xmlns="http://www.w3.org/2000/svg" viewBox="0 0 411.74 411.74"><defs><style>.cls-1{fill:#efe800;}.cls-2{fill:#e99af4;}.cls-3{fill:#e138f9;}</style></defs><title>icon_star_2</title><circle class="cls-1" cx="205.87" cy="205.87" r="205.87"/><path class="cls-2" d="M232.28,160l71.37-53-53,71.37A51.74,51.74,0,0,0,232.28,160Z"/><path class="cls-2" d="M193.21,154.58l13-87.92,13,87.92A51.75,51.75,0,0,0,193.21,154.58Z"/><path class="cls-2" d="M161.75,178.4l-53-71.37,71.37,53A51.77,51.77,0,0,0,161.75,178.4Z"/><path class="cls-2" d="M154.67,204.46a51.78,51.78,0,0,0,1.65,13l-87.92-13,87.92-13A51.64,51.64,0,0,0,154.67,204.46Z"/><path class="cls-2" d="M180.14,248.91l-71.37,53,53-71.37A51.72,51.72,0,0,0,180.14,248.91Z"/><path class="cls-2" d="M219.2,254.34l-13,87.93-13-87.93A51.62,51.62,0,0,0,219.2,254.34Z"/><path class="cls-3" d="M206.2,246.87a42.4,42.4,0,1,1,42.4-42.4h0A42.4,42.4,0,0,1,206.2,246.87Z"/><path class="cls-2" d="M250.66,230.53l53,71.37-71.37-53A51.72,51.72,0,0,0,250.66,230.53Z"/><path class="cls-2" d="M344,204.46l-87.92,13a51.89,51.89,0,0,0,0-26Z"/></svg>