<svg id="Layer_23" data-name="Layer 23" xmlns="http://www.w3.org/2000/svg" viewBox="0 0 411.74 411.74"><defs><style>.cls-1{fill:#6791ef;}.cls-2{fill:#935b00;}.cls-3{fill:#ae54d3;}.cls-4{fill:#d0e000;}</style></defs><title>icon_umbrella_2</title><circle class="cls-1" cx="205.87" cy="205.87" r="205.87"/><path class="cls-2" d="M209.24,302.32c-0.14-30.42,0-61-.09-91.26V164.94H204.3v29.79h-0.11c0.08,32,.22,63.94.06,96,0,3.81-1.37,7.49-2.26,12.11,0.51,1.17,2,3,2,4.79,0,3.12-1.26,6.23-1.33,9.36-0.21,9.57,0,19.15-.17,28.72-0.11,5.19-3,9.56-7.82,10.46a17.36,17.36,0,0,1-11.7-2.47c-4-2.69-5.4-7.6-3-12.5,1.6-3.25,1-6-2.39-6.52-1.51-.23-4.39,2.21-5.08,4-2.89,7.7-1.44,15,4.49,20.73s13.47,7.4,21.39,4.09c7.67-3.2,12-9.24,12-17.52C210.23,331.38,209.3,316.92,209.24,302.32Z"/><path class="cls-2" d="M208.9,60.8c-0.18-9.13.09-18.27-.18-27.4,0-1.84-1.72-3.64-2.64-5.46-0.93,1.76-2.63,3.49-2.68,5.27-0.27,9.59-.11,19.2-0.15,28.8,0,4-1.3,6.63-4.85,7.68h0a11.51,11.51,0,0,0,1.33.7,13.12,13.12,0,0,0,2.1.73H202c0.54,0.12,1.24.24,1.83,0.33h0.34l0.54,0.07,1.81,0.1h0.43l1.67-.14h0.12l0.9-.11a35.56,35.56,0,0,0,4.42-.85c0.68-.17,1.38-0.37,2.11-0.6C210.41,69.33,209,65.83,208.9,60.8Z"/><path class="cls-3" d="M199.75,70.41h0a122.4,122.4,0,0,0-53.63,36q-2.46,2.82-4.71,5.74-1.69,2.18-3.28,4.41-1.06,1.48-2.06,3-1.52,2.24-2.93,4.52l-1.84,3c-0.3.51-.6,1-0.89,1.53q-1.31,2.29-2.54,4.6c-0.54,1-1.07,2-1.58,3.08q-0.39.77-.76,1.54c-0.5,1-1,2-1.47,3.08s-0.94,2.06-1.39,3.08c-0.9,2-1.56,4.1-2.37,6.13a197.52,197.52,0,0,0-13.45,65.08h-0.2c-3.75-11-10.27-18.51-21.65-20-11.15-1.51-19.35,3.8-26.36,14.31,2.6-32.42,12.92-59.77,32-83.47,27-33.55,62.26-52.25,105.26-55.88a12.24,12.24,0,0,0,2.5-.44h0A11.43,11.43,0,0,0,199.75,70.41Z"/><path class="cls-4" d="M202,71.3v0h0c-36.65,34.92-44,109.21-45.38,135.38-0.06,1.23-.12,2.35-0.17,3.36,0,1.26-.09,2.34-0.12,3.22v2.59c-4.46-13.25-12.18-21.17-26.22-20.7-10.61.35-18.41,6.5-23.19,20.18h0a197.3,197.3,0,0,1,13.46-65.08c0.8-2,1.55-4.08,2.46-6.13,0.45-1,.86-2,1.34-3.08s0.94-2,1.44-3.08l0.75-1.54c0.51-1,1-2,1.58-3.08,0.82-1.54,1.65-3.08,2.53-4.6,0.29-.51.58-1,0.89-1.53q0.9-1.53,1.84-3,1.41-2.28,2.93-4.52c0.67-1,1.36-2,2.06-3q1.59-2.23,3.28-4.41,2.25-2.91,4.71-5.74a122.4,122.4,0,0,1,53.63-36V70.6a8.75,8.75,0,0,1,2.1.86h0.07A0.35,0.35,0,0,1,202,71.3Z"/><path class="cls-3" d="M305.41,215.71c-5.9-14.77-13.53-20.87-25.46-20.7-11.37.16-19.21,6.58-24.27,20.25,0-1.32.34-71.85-46-143.77a35.56,35.56,0,0,0,4.42-.85C317.26,114.9,305.41,215.71,305.41,215.71Z"/><path class="cls-4" d="M356.7,218.11c-5-14.54-13.14-24.52-29.6-22.86-11.86,1.19-18.44,9.09-21.7,20.45,0,0,11.23-98.9-91.33-145.08,0.68-.17,1.38-0.37,2.11-0.6,0.38,0,.79.08,1.22,0.1,63.37,3.1,119.87,49.87,134.66,111.63C354.86,193.48,355.9,205.6,356.7,218.11Z"/><path class="cls-3" d="M204.71,71.6s2.36,146.69,1.93,145.19a32.14,32.14,0,0,0-7.47-12.94c-6.66-6.61-13.67-10.57-25-8-9.73,2.19-15.06,9.67-17.92,20H156v-0.17c0-.31.13-1,0.16-2.18,0-.13.07-0.27,0.07-0.41,0-.88.1-2,0.15-3.22,0-1,.11-2,0.18-3.24,1.4-26.13,8.63-100.36,45.31-135.34h0s1.38,0.15,2,.24h0.34C204.3,71.53,204.57,71.6,204.71,71.6Z"/><path class="cls-4" d="M209.73,71.48l-5,.16h0l1.89,145.19s1.24-7.7,6.33-13c8.5-8.88,26.74-15.5,39.74,4.91,1.22,1.92,1.69,4.12,3.09,6.56h0C255.84,213.93,256.09,143.4,209.73,71.48Z"/></svg>