<svg id="Layer_7" data-name="Layer 7" xmlns="http://www.w3.org/2000/svg" xmlns:xlink="http://www.w3.org/1999/xlink" viewBox="0 0 411.75 411.75"><defs><style>.cls-1{fill:#fdba14;}.cls-2{fill:url(#radial-gradient);}.cls-3{fill:#3eb49e;}.cls-4{fill:#dc4844;}.cls-5{fill:#eef0ef;}</style><radialGradient id="radial-gradient" cx="143.74" cy="185.49" r="123.87" gradientUnits="userSpaceOnUse"><stop offset="0" stop-color="#a4501e"/><stop offset="0.23" stop-color="#9f4c1c"/><stop offset="0.52" stop-color="#904214"/><stop offset="0.82" stop-color="#783109"/><stop offset="1" stop-color="#662400"/></radialGradient></defs><title>icon_icecream</title><circle class="cls-1" cx="205.87" cy="205.87" r="205.87"/><ellipse class="cls-2" cx="210.68" cy="191.2" rx="67.61" ry="9.74"/><ellipse class="cls-3" cx="210.7" cy="191.41" rx="67.61" ry="12.83"/><path class="cls-4" d="M1847.87,315.12c0.9,6.36-44.27,11.54-67.45,11.54a323.73,323.73,0,0,1-47.8-4.16c-4.89-1.19-7.93-2-7.93-2a8,8,0,0,0-3.12-.29c-5.37-1.45-8.77-3.06-8.83-4.75a17.32,17.32,0,0,0,3.54,12.39l0.51,0.17c0,0.27.07,0.54,0.12,0.82l8.07,42.43c1.07,5.83,5.87,12.2,10.89,14.65,4.7,29.36,8.86,59.48,12.69,90,9,7.42,20.29,10.45,31.84,10.44s22.81-3,31.84-10.44c3.82-30.37,8-60.39,12.64-89.66,5-2.47,9.71-8.72,10.82-14.46l8.44-42.36a12.59,12.59,0,0,0,.2-1.49C1846.3,325.08,1848.18,318.62,1847.87,315.12Z" transform="translate(-1569.59 -123.92)"/><path class="cls-5" d="M1837.4,299.44c0-.17,0-0.34,0-0.51,0,0.1,0,.19,0,0.29,2.12-9.78,3.08-24.66-7.76-34.65a27.61,27.61,0,0,0-3.68-2.8,19.16,19.16,0,0,0,0-4.34c0.05,0.25.11,0.51,0.16,0.76,2.34-17.22-.78-27-11.41-37.62a33,33,0,0,0-7.74-5.62c0.28,0.06.57,0.13,0.86,0.17,1.49-6.38,2.2-16-7.37-27.28-6.18-7.28-13.91-16.44-19.74-28.76l-0.55-1.19-0.55,1.19c-5.83,12.32-13.56,21.47-19.74,28.76-9.56,11.27-8.86,20.9-7.37,27.28,0.3,0,.58-0.1.86-0.17a33,33,0,0,0-7.74,5.62C1735.11,231.2,1732,241,1734.33,258.2c0.05-.26.11-0.51,0.16-0.76a19.16,19.16,0,0,0,0,4.34,27.61,27.61,0,0,0-3.68,2.8c-10.84,10-9.88,24.87-7.76,34.65,0-.1,0-0.19,0-0.29,0,0.17,0,.34,0,0.51-3.88,4.24-5.49,9.22-4.23,14.55-1.15,2.55,2.92,2.63,9.91,2.31l0.25-.12c1,1.46,6,2.21,13.59,2.39,1.24,1.51,7.08,2.67,12.51,1.11,4.88,2.2,14.43,1.21,21.39.8,0.2,0,1.59.07,1.79,0.06,2.32,0.11,2.35-.14,5-0.11l0.61,0c7,0.41,16.52,1.4,21.39-.8,5.43,1.56,11.27.4,12.51-1.11,7.55-.17,12.56-0.92,13.59-2.39l0.25,0.12c7,0.32,11.06.24,9.91-2.31C1842.88,308.66,1841.27,303.68,1837.4,299.44Z" transform="translate(-1569.59 -123.92)"/></svg>