<svg id="Layer_80" data-name="Layer 80" xmlns="http://www.w3.org/2000/svg" viewBox="0 0 411.74 411.74"><defs><style>.cls-1{fill:#a2eded;}.cls-2{fill:#00bc0d;}.cls-3{fill:#f7dd6f;}</style></defs><title>icon_leaf_2</title><circle class="cls-1" cx="205.87" cy="205.87" r="205.87"/><path class="cls-2" d="M310.59,249.53c2.27-5.88,17.56-60.8-60-91.37a1469,1469,0,0,0-152.1-57.9c-1.39-.47,24.39,173.66,104.38,205.69C281.53,333.09,309.51,251.66,310.59,249.53Z"/><path class="cls-3" d="M245.32,261.23c-18.39,17.09-48.15,24.62-52.31,24.38,4.18,0.49,34.4-4.17,53.86-21.31,8.26-7.2,12.39-11.93,14.48-14.86a128.68,128.68,0,0,0,28.85,2.83c-2.57,2.71-7.18,7.62-15.71,16.2-19.44,20.22-51.38,32.41-55.92,32.75,4.56-.09,37-9.49,57.6-30,10.48-10.28,14.7-16.05,16.41-19,12.15-.71,13.43-2.09,13.49-2.1s-0.67-.7-12.14-2c0.28-3.05-.19-8.79-3.63-20.6-6.92-21.75-28-47.5-31.17-51.83,3,4.43,22,32.25,27.9,54,2.61,10,3.93,15.2,4.68,18.11a229.76,229.76,0,0,1-28-5.46c0-3.44-.74-9.24-3.37-19.7-6.4-23.25-25.77-52.16-28.59-56.88,2.69,4.79,20.09,35.49,25.5,58.57,2,8.76,3.17,14,3.91,17.32a203.29,203.29,0,0,1-30.41-11.14c-0.09-3.45-.79-9-2.76-18.4-5.41-23.46-21.92-53.65-24.28-58.41,2.26,4.83,17,36.42,21.57,59.52,1.47,7.79,2.42,12.81,3,16.15a223.4,223.4,0,0,1-28.21-16,122.25,122.25,0,0,0-1.85-14.49c-3.87-20.45-16.2-47.14-17.87-51,1.58,3.84,12.56,31.55,15.78,51.59,0.88,5.74,1.5,9.7,1.93,12.56a256.65,256.65,0,0,1-27.62-21.73c-0.09-2.55-.42-6.3-1.17-12-2.64-17.85-11.58-41.52-12.82-44.9,1.18,3.43,9.08,27.78,11.22,45.16,0.53,4.55.93,7.85,1.21,10.27a291.27,291.27,0,0,1-27-28.43c-0.06-1.57-.2-3.62-0.46-6.43-1.2-11.58-6-27-6.63-29.15,0.64,2.18,4.81,18,5.73,29.17,0.18,2.16.32,3.89,0.42,5.27a331.75,331.75,0,0,1-33.07-48.76,330.93,330.93,0,0,0,31.64,53c-0.66.37-1.47,0.81-2.48,1.35-5.52,3-14.06.72-15.19,0.08,1.13,0.72,9.72,4.28,15.55,1.57a20.47,20.47,0,0,0,3-1.79,274.34,274.34,0,0,0,26.3,30.51c-1.33.87-3.14,2-5.6,3.51-9.73,6.15-24.86,4.17-26.85,3.29,2,1,17.27,5,27.55-.78a35,35,0,0,0,6.43-4.49,231.36,231.36,0,0,0,27.23,22.92c-1.78,1.29-4.22,3.09-7.69,5.52-12.65,9.15-32.61,9.19-35.16,8.38,2.6,1,22.78,3.3,36.13-5.54a52,52,0,0,0,8.72-7,191.85,191.85,0,0,0,28.09,16.29c-2.34,1.94-5.83,4.83-11.1,9-16.31,13.35-42.28,16.46-45.87,15.77,3.6,0.93,30,.64,47.19-12.57,6.56-5,10.21-8.61,12.23-11.08a162.66,162.66,0,0,0,30.64,10.36C256.14,251.33,252,255.23,245.32,261.23Z"/></svg>