<svg id="Layer_101" data-name="Layer 101" xmlns="http://www.w3.org/2000/svg" viewBox="0 0 411.75 411.75"><defs><style>.cls-1{fill:#a2dcf1;}.cls-2{fill:#f59326;}.cls-2,.cls-3,.cls-4{fill-rule:evenodd;}.cls-3{fill:#f06e59;}.cls-4{fill:#ffd15f;}</style></defs><title>icon_flipflops</title><circle class="cls-1" cx="205.87" cy="205.87" r="205.87"/><path class="cls-2" d="M3184.12,4720.32s-5.11-42.32,11.65-75,7.71-80.33-.27-89.65c-5.92-6.81-8.07-8.07-27.52-8.61s-38.46,8.43-47.42,20.8-16.23,43.93-14.43,71.27,2.69,23.49,3.59,30.3a337.94,337.94,0,0,1,2.33,50.92c-0.63,25.55.18,48,.18,48s-0.54,24.12,37.29,23.22,34.78-21.43,34.78-21.43Z" transform="translate(-3015.59 -4457.2)"/><path class="cls-3" d="M3188,4717.63s-5-42.32,11.65-75,7.71-80.42-.27-89.65c-5.83-6.81-8.07-8.16-27.52-8.61s-38.37,8.34-47.33,20.8-16.32,43.84-14.43,71.18,2.6,23.49,3.5,30.39,3,25.28,2.33,50.83,0.27,48,.27,48-0.63,24.12,37.2,23.31,34.78-21.43,34.78-21.43Z" transform="translate(-3015.59 -4457.2)"/><path class="cls-2" d="M3119.49,4653.62s-0.27,26,5,33.08,9.14,18,9.41,20.8,0.54,8.43-4.57,8.16-8.52-11.83-9.5-15c0,0-4-18.47-3.41-21.61C3115.18,4673.88,3119.49,4653.62,3119.49,4653.62Z" transform="translate(-3015.59 -4457.2)"/><path class="cls-4" d="M3116.17,4677.56s-3.59-42.23,12.91-59.08c27.7-33.08,48.32-36.22,48.32-36.22l-2.42,17.66S3116.26,4631.84,3116.17,4677.56Z" transform="translate(-3015.59 -4457.2)"/><path class="cls-2" d="M3196.67,4645.64c-0.54-5.74-2.33,25.82-5.11,33.8-1.61,4.84-7.71,12-7.71,12l-11.21,12.73s-9,10-6,15.24c2.78,5.11,5.56,4.39,9.05,3,3-1.17,3.77-3,12.19-13.09,8.88-10.67,11.48-34.7,11.48-34.7Z" transform="translate(-3015.59 -4457.2)"/><path class="cls-4" d="M3198.2,4682.94c22.77-85.53-21.07-100.59-21.07-100.59l-2.42,17.66S3200.89,4633.63,3198.2,4682.94Z" transform="translate(-3015.59 -4457.2)"/><path class="cls-2" d="M3258.8,4719s5.11-42.32-11.65-75-7.71-80.33.27-89.65c5.92-6.81,8.07-8.07,27.52-8.61s38.46,8.43,47.42,20.8,16.23,43.93,14.43,71.27-2.69,23.49-3.59,30.3a338,338,0,0,0-2.33,50.92c0.63,25.55-.18,48-0.18,48s0.54,24.12-37.29,23.22-34.78-21.43-34.78-21.43Z" transform="translate(-3015.59 -4457.2)"/><path class="cls-3" d="M3254.94,4716.29s5-42.32-11.65-75-7.71-80.42.27-89.65c5.83-6.81,8.07-8.16,27.52-8.61s38.37,8.34,47.33,20.8,16.32,43.84,14.43,71.18-2.6,23.49-3.5,30.39-3,25.28-2.33,50.83-0.27,48-.27,48,0.63,24.12-37.2,23.31-34.78-21.43-34.78-21.43Z" transform="translate(-3015.59 -4457.2)"/><path class="cls-2" d="M3323.43,4652.27s0.27,26-5,33.08-9.14,18-9.41,20.8-0.54,8.43,4.57,8.16,8.52-11.83,9.5-15c0,0,4-18.47,3.41-21.61C3327.74,4672.53,3323.43,4652.27,3323.43,4652.27Z" transform="translate(-3015.59 -4457.2)"/><path class="cls-4" d="M3326.75,4676.21s3.59-42.23-12.91-59.08c-27.7-33.08-48.32-36.22-48.32-36.22l2.42,17.66S3326.66,4630.49,3326.75,4676.21Z" transform="translate(-3015.59 -4457.2)"/><path class="cls-2" d="M3246.25,4644.3c0.54-5.74,2.33,25.82,5.11,33.8,1.61,4.84,7.71,12,7.71,12l11.21,12.73s9,10,6,15.24c-2.78,5.11-5.56,4.39-9.05,3-3-1.17-3.76-3-12.19-13.09-8.87-10.67-11.48-34.7-11.48-34.7Z" transform="translate(-3015.59 -4457.2)"/><path class="cls-4" d="M3244.72,4681.59C3222,4596.06,3265.79,4581,3265.79,4581l2.42,17.66S3242,4632.28,3244.72,4681.59Z" transform="translate(-3015.59 -4457.2)"/></svg>