<svg id="Layer_25" data-name="Layer 25" xmlns="http://www.w3.org/2000/svg" viewBox="0 0 411.75 411.75"><defs><style>.cls-1{fill:#24a9e0;}.cls-2{fill:#e5be00;}.cls-3{fill:#7ac943;}.cls-4{fill:#f25f58;}.cls-5{fill:#ff931e;}</style></defs><title>icon_rocket</title><circle class="cls-1" cx="205.87" cy="205.87" r="205.87"/><path class="cls-2" d="M362.45,1171.51H299.61c-13.76,38.2-11.68,89-11.68,89,1.56,80.21,24.79,88.21,24.79,88.21h36.62s23.23-8,24.79-88.21C374.13,1260.49,376.21,1209.71,362.45,1171.51Z" transform="translate(-123.59 -1086.87)"/><path class="cls-3" d="M288.12,1267.47s-42.57,31.25-10.84,101.92c0,0,8.83-24.89,33.23-22C310.52,1347.38,290.53,1334.73,288.12,1267.47Z" transform="translate(-123.59 -1086.87)"/><path class="cls-3" d="M373.84,1267.47s42.57,31.25,10.84,101.92c0,0-8.7-24.92-33.1-22C351.58,1347.35,371.44,1334.73,373.84,1267.47Z" transform="translate(-123.59 -1086.87)"/><path class="cls-4" d="M329.48,1436.81a8.84,8.84,0,0,0,2.44,1.77v-6.25A25.66,25.66,0,0,1,329.48,1436.81Z" transform="translate(-123.59 -1086.87)"/><path class="cls-4" d="M362.17,1383.47s-4.76-16.37-18-20.64H316.81s-19.47-1.17-16.94,26.87c0,0,4.64-10.51,8.36-7.79,0,0-1,42.64,9.95,36.8,0,0,1.4-8,7-9.15a16,16,0,0,1,6.78,4.52v0.2c3,3.42,4,9.06,0,18.06v6.25c4,2,12.39,1.36,14.55-33.12,0,0,5.47-6.81,8.2,2.14,0,0,1.57,5.06,0,7.59C354.76,1415.2,367.82,1414.81,362.17,1383.47Z" transform="translate(-123.59 -1086.87)"/><path class="cls-3" d="M331.92,1130c-0.49-.14-0.74-0.16-1-0.22a0.36,0.36,0,0,1-.14.07,0.25,0.25,0,0,1-.18-0.12c-2.81.57-19.81,5.23-28,35.23h56.47C351.6,1138,336.36,1131.43,331.92,1130Z" transform="translate(-123.59 -1086.87)"/><path class="cls-3" d="M331.85,1345.62H301.56s4,21.39,30.28,26.19c26.24-4.81,30-26.19,30-26.19h-30Z" transform="translate(-123.59 -1086.87)"/><path class="cls-5" d="M332,1186.5a22.1,22.1,0,1,0,22.1,22.1A22.13,22.13,0,0,0,332,1186.5Z" transform="translate(-123.59 -1086.87)"/><path class="cls-5" d="M332.09,1240.48a11,11,0,1,0,11,11A11,11,0,0,0,332.09,1240.48Zm7.33,14.94q-0.19.35-.42,0.69l-0.23.33q-0.24.32-.51,0.62a8.33,8.33,0,0,1-11.77.57q-0.3-.27-0.57-0.57t-0.51-.62l-0.23-.33q-0.22-.33-0.42-0.69a8.34,8.34,0,0,1,.42-8.63l0.23-.33q0.24-.32.51-0.62t0.57-.57a8.35,8.35,0,0,1,2-1.34q0.36-.18.75-0.32t0.78-.24a8.4,8.4,0,0,1,4.16,0q0.4,0.1.78,0.24t0.75,0.32a8.36,8.36,0,0,1,2.56,1.91q0.27,0.3.51,0.62l0.23,0.33A8.34,8.34,0,0,1,339.42,1255.41Z" transform="translate(-123.59 -1086.87)"/></svg>