<?xml version="1.0" encoding="utf-8"?>
<!-- Generator: Adobe Illustrator 21.0.0, SVG Export Plug-In . SVG Version: 6.00 Build 0)  -->
<svg version="1.1" id="Layer_1" xmlns="http://www.w3.org/2000/svg" xmlns:xlink="http://www.w3.org/1999/xlink" x="0px" y="0px"
	 viewBox="0 0 35.4 26.9" style="enable-background:new 0 0 35.4 26.9;" xml:space="preserve">
<style type="text/css">
	.st0{fill-rule:evenodd;clip-rule:evenodd;fill:#F3DBDB;stroke:#4B4A4B;stroke-miterlimit:10;}
	.st1{fill-rule:evenodd;clip-rule:evenodd;fill:#FFFFFF;stroke:#5E5E5F;stroke-miterlimit:10;}
	.st2{fill-rule:evenodd;clip-rule:evenodd;fill:#F5E2E2;stroke:#5E5E5F;stroke-miterlimit:10;}
</style>
<path class="st0" d="M30.6,3.7h-3.5c-0.1-0.7-0.5-3.2-2.6-3.2H10.8C8.8,0.5,8.4,3,8.4,3.7H4.8c-2.4,0-4.3,1.1-4.3,3.5v15.7
	c0,2.4,1.9,3.5,4.3,3.5h25.8c2.4,0,4.3-1.1,4.3-3.5V7.2C34.9,4.8,33,3.7,30.6,3.7z"/>
<path class="st1" d="M17.7,6.2c4.6,0,8.3,3.8,8.3,8.5c0,4.7-3.7,8.5-8.3,8.5c-4.6,0-8.3-4.1-8.3-8.7C9.4,9.7,13.1,6.2,17.7,6.2z"/>
<path class="st2" d="M17.7,9.9c2.5,0,4.7,2.3,4.7,4.8c0,2.5-2.2,4.8-4.7,4.8c-2.5,0-4.7-2.3-4.7-4.8C13,12.1,15.2,9.9,17.7,9.9z"/>
</svg>
