<?xml version="1.0" encoding="utf-8"?>
<!-- Generator: Adobe Illustrator 21.0.0, SVG Export Plug-In . SVG Version: 6.00 Build 0)  -->
<svg version="1.1" id="Layer_2" xmlns="http://www.w3.org/2000/svg" xmlns:xlink="http://www.w3.org/1999/xlink" x="0px" y="0px"
	 viewBox="0 0 38.6 43.9" style="enable-background:new 0 0 38.6 43.9;" xml:space="preserve">
<style type="text/css">
	.st0{fill:#FFFFFF;}
	.st1{fill:#DBDBDB;stroke:#494949;stroke-miterlimit:10;}
	.st2{fill:#FFFFFF;stroke:#494949;stroke-miterlimit:10;}
	.st3{fill:#29275F;}
</style>
<g>
	<g>
		<path class="st0" d="M29.6,6.6c0,0,0.1,0,0.1,0C29.7,6.6,29.6,6.6,29.6,6.6z"/>
		<path class="st1" d="M37.9,15l-4.2-9.1c-0.4-1-1.4-1.6-2.5-1.7L20.9,3.6C20,3.6,19.2,4,18.7,4.7L1,29.6c-0.8,1.1-0.5,2.7,0.6,3.4
			l14.9,10c1.1,0.8,2.7,0.5,3.5-0.6l17.7-24.9C38.2,16.7,38.3,15.8,37.9,15z M31.6,9.4c-0.6,0.8-1.8,1-2.6,0.5
			c-0.8-0.6-1.1-1.7-0.5-2.5c0.2-0.3,0.5-0.5,0.8-0.7C29.1,6.8,29,6.9,29,6.9s0.1-0.1,0.4-0.2c0,0,0,0,0,0c0,0,0.1,0,0.1,0
			c0,0,0,0,0.1,0c0,0,0.1,0,0.1,0c0,0,0.1,0,0.1,0c0,0,0,0,0,0c0,0,0,0,0,0c0.5-0.1,0.9,0,1.3,0.3C32,7.5,32.2,8.6,31.6,9.4z"/>
		<path class="st0" d="M29.4,6.7c0,0,0.1,0,0.1,0C29.5,6.7,29.5,6.7,29.4,6.7z"/>
		<path class="st2" d="M31.5,17.2L21,10.2c-0.7-0.5-1.6-0.3-2.1,0.4L6.3,28.2c-0.5,0.7-0.3,1.6,0.4,2l10.5,7.1
			c0.7,0.5,1.6,0.3,2.1-0.4l12.5-17.6C32.3,18.6,32.2,17.7,31.5,17.2z"/>
		<path class="st3" d="M36.4,0.4c-0.5-0.5-1.4-0.6-2.5-0.2c-1,0.4-2,1.1-2.9,2c-0.6,0.6-1.1,1.3-1.4,1.9l0.9,0.1
			c0.3-0.5,0.7-1,1.1-1.4c0.8-0.8,1.7-1.5,2.6-1.8c0.2-0.1,0.4-0.1,0.6-0.2c0.5-0.1,0.8,0,1.1,0.2c0.3,0.3,0.3,0.9,0.1,1.6
			c-0.3,0.8-0.9,1.8-1.7,2.6C32.5,7,30.6,7.5,30,7c-0.1-0.1-0.2-0.2-0.2-0.4c-0.4,0.1-0.6,0.2-0.8,0.3c0.1,0.2,0.2,0.5,0.4,0.6
			c0.4,0.4,1,0.5,1.8,0.4c1.1-0.2,2.4-1,3.6-2.2c0.9-0.9,1.6-1.9,1.9-2.9C37.1,1.8,37,0.9,36.4,0.4z"/>
	</g>
</g>
</svg>
