<?xml version="1.0" encoding="utf-8"?>
<!-- Generator: Adobe Illustrator 21.0.0, SVG Export Plug-In . SVG Version: 6.00 Build 0)  -->
<svg version="1.1" id="Layer_2" xmlns="http://www.w3.org/2000/svg" xmlns:xlink="http://www.w3.org/1999/xlink" x="0px" y="0px"
	 viewBox="0 0 55 73.5" style="enable-background:new 0 0 55 73.5;" xml:space="preserve">
<style type="text/css">
	.st0{fill:#FFDEDE;stroke:#494949;stroke-miterlimit:10;}
	.st1{fill:#FFE9E9;stroke:#494949;stroke-miterlimit:10;}
</style>
<g>
	<path class="st0" d="M54.5,27.4c0-14.9-12.1-26.9-26.9-26.9C12.9,0.5,1,12.2,0.6,26.7H0.6c0,0.8-0.1,1.6-0.1,2.4
		c0,19.9,24.7,43.3,25,43.5c0.7,0.6,4,0.6,4.5,0c0.6-0.6,24.5-25.1,24.5-43.5c0-0.4,0-0.7,0-1.1C54.5,27.8,54.5,27.6,54.5,27.4z
		 M27.5,46.3c-10.4,0-18.9-8.5-18.9-18.9C8.6,17,17.1,8.6,27.5,8.6C38,8.6,46.4,17,46.4,27.4C46.4,37.9,38,46.3,27.5,46.3z"/>
	<circle class="st1" cx="27.5" cy="27.4" r="8.8"/>
</g>
</svg>
